<svg xmlns="http://www.w3.org/2000/svg" viewBox="0 0 180 184.64"><title>Asset 2</title><path d="M74.21,180.35c11.71-4.17,21-10.08,29.9-15.76l2.43-1.51a223.94,223.94,0,0,0,28.16-21.21c21.09-18.43,33.73-36.51,40.91-58.53,2.9-8.92,7.07-26.43,2-42.77a54.71,54.71,0,0,0-21.41-29.09C155,10.43,141.94,0,117.25,0c-22.6,0-47.4,8.69-73.6,26l-.81.46-.12.12A26.23,26.23,0,0,0,40.4,28a9.09,9.09,0,0,1-2.12,1.27A153.44,153.44,0,0,0,23,41.15C11.89,51.81-.74,69.77,0,85.07a20.46,20.46,0,0,0,8,15.65,26.66,26.66,0,0,0,16.69,5.33c13.44,0,28.16-7.3,38.25-13.56a11.49,11.49,0,0,1,1.94-1.27l5.22-3.48,1.74-1.16C86.27,77,101.1,67,117.79,61.2A35,35,0,0,1,129.38,59a17.79,17.79,0,0,1,5,.58,15.48,15.48,0,0,1,11,8.58c3.82,7.88,2.9,20.4-2.32,31.76-7.19,15.53-19.59,30.83-36.63,45.55a147.89,147.89,0,0,1-24,17.15l-.7.35a90.28,90.28,0,0,1-11.13,5.45l-.58.23c-1.16.46-2.2.81-3.13,1.16-16.81,4.52-6.61-10.32-6.61-10.32a120.54,120.54,0,0,1,11.47-11.59c2.32-2.09,4.64-4.29,7-6.72l.58-.58c2.9-2.9,7-7,6.72-12.63-.35-7.65-8.11-12.4-15.42-12.63H70c-7,0-13.68,4.17-18,7.53A61.61,61.61,0,0,0,40,136.42c-4.4,7.07-13.79,25.15-4.75,39.52,3.71,5.8,9.74,8.69,18.2,8.69A66.25,66.25,0,0,0,74.21,180.35Z" fill="#ed1c24"/></svg>