<svg xmlns="http://www.w3.org/2000/svg" viewBox="0 0 858 610"><path d="M374 299.14l.28.07-.08.27-.28-.08zm-3.51-9.85l.08-.27-.27-.07-.08.27zm-1.2-11l.51.14.14-.5-.51-.15zm3.32-11.08a.44.44 0 0 0-.62-.17.45.45 0 0 0-.17.61.46.46 0 0 0 .62.18.46.46 0 0 0 .15-.57zm5.4-8.68l.12-.39-.39-.11-.11.39zm7.64-7.47l.45.13.13-.44-.45-.13zm-2.39-12.65a.86.86 0 1 0-.34 1.17.86.86 0 0 0 .32-1.12zm-9.26 7.32a.66.66 0 1 0-.9-.26.66.66 0 0 0 .9.26zm-10.25 59.73a.41.41 0 0 0 .16-.56.41.41 0 0 0-.72.4.41.41 0 0 0 .52.16zm-4.32-9.88a.39.39 0 0 0 .15-.55.4.4 0 0 0-.55-.17.41.41 0 0 0 .4.72zm-2.69-10.84a.7.7 0 0 0 1.23-.68.7.7 0 0 0-.95-.27.7.7 0 0 0-.32.95zm4.72-20.88a.94.94 0 1 0-1.29-.37.94.94 0 0 0 1.25.37zm5.46-10.9a.87.87 0 0 0-1.18-.33.86.86 0 1 0 1.18.33zm-9.29 19.71a.7.7 0 0 0-.27.95.7.7 0 1 0 .27-.95zm35.18-38l-.27-.08-.08.28.28.07zm10.81-1.85l-.27-.08-.08.27.27.08zm10.8.31l-.27-.08-.08.27.28.08zM378 321.05l-.1.36.36.11.1-.37zm-8.29-7.41l-.15.51.5.14.15-.5zm8.51-87.82a1.23 1.23 0 1 0 1.2 2.15 1.23 1.23 0 1 0-1.2-2.15zm-28.86 31.45a1 1 0 0 0-.36 1.29.94.94 0 0 0 1.65-.92 1 1 0 0 0-1.27-.37zm13.25-18a1.23 1.23 0 0 0-1.67-.48 1.23 1.23 0 1 0 1.19 2.16 1.22 1.22 0 0 0 .5-1.69zm-9.36 72.61a.88.88 0 0 0 .33-1.18.86.86 0 0 0-1.51.84.87.87 0 0 0 1.2.33zm-7-20.61a.9.9 0 1 0-1.23-.35.89.89 0 0 0 1.21.34zm-.4-23.77a1.24 1.24 0 1 0 1.68.48 1.23 1.23 0 0 0-1.7-.49zm1.63 34.16a.86.86 0 1 0 1.51-.84.86.86 0 0 0-1.51.84zm6.71-54.22a1.23 1.23 0 1 0 1.67.48 1.22 1.22 0 0 0-1.69-.49zm-8.5 32.79a.94.94 0 0 0 .37-1.28.94.94 0 1 0-1.65.92.94.94 0 0 0 1.26.35zm43.78-56.64a.7.7 0 1 0-.95-.27.7.7 0 0 0 .93.26zm20.91-3.39a.66.66 0 1 0 .9.25.67.67 0 0 0-.92-.26zm-10.22 1.07a.61.61 0 0 0 .23-.83.62.62 0 0 0-.84-.25.62.62 0 1 0 .61 1.08zm-31.24 10.4a1.08 1.08 0 1 0 1.47.42 1.08 1.08 0 0 0-1.49-.43zm52.81-9l.08-.27-.27-.07-.08.27zm-46.28 111.62l.27.08.08-.27-.27-.08zM341 317.41a1.08 1.08 0 1 0 .42-1.47 1.08 1.08 0 0 0-.42 1.47zm1-72.78a1.54 1.54 0 1 0 .6-2.1 1.54 1.54 0 0 0-.6 2.1zm-7.81 18.25a1.39 1.39 0 1 0 1.89.54 1.39 1.39 0 0 0-1.9-.54zm2.2 44.65a1.08 1.08 0 0 0 1.47.42 1.08 1.08 0 1 0-1.47-.42zm92.77-94.84a.81.81 0 0 0 .32-1.11.82.82 0 1 0-.32 1.11zm-21.54-3.52a1.09 1.09 0 0 0 .42-1.47 1.08 1.08 0 1 0-.42 1.47zm10.24-.69a.82.82 0 1 0 1.12.32.82.82 0 0 0-1.13-.32zm-59.6 111.88a.78.78 0 0 0 1.36-.76.78.78 0 0 0-1.06-.3.77.77 0 0 0-.3 1.06zm-2.67-92.48a1.7 1.7 0 1 0 .66-2.31 1.7 1.7 0 0 0-.66 2.31zM334 276.12a1.39 1.39 0 1 0-1.88-.54 1.39 1.39 0 0 0 1.88.54zm-.46 10.53a1.08 1.08 0 1 0-1-1.89 1.08 1.08 0 0 0 1 1.89zm17.63-52.71a1.69 1.69 0 1 0-.66 2.31 1.7 1.7 0 0 0 .64-2.31zm-11.69 19a1.39 1.39 0 1 0-.54 1.88 1.38 1.38 0 0 0 .52-1.89zm-4.48 44.8a1.23 1.23 0 1 0-1.68-.47 1.24 1.24 0 0 0 1.68.47zm61.82-88a1.09 1.09 0 1 0-1.47-.42 1.09 1.09 0 0 0 1.46.47zm-20.28 4.47a1.24 1.24 0 1 0-.48 1.68 1.25 1.25 0 0 0 .47-1.63zm-9.67 114.13a.46.46 0 0 0-.44-.8.46.46 0 1 0 .44.8zm19.56-117.92a1.08 1.08 0 1 0-.42 1.47 1.07 1.07 0 0 0 .41-1.42zM367 219.81a1.24 1.24 0 1 0-.48 1.68 1.24 1.24 0 0 0 .48-1.68zm72.28-3.38l.14-.5-.5-.15-.15.51zm9.11 5.22l-.05.18h.18v-.17zm-43.62 133.14h.09v-.09h-.09zm-10.61-1.21l-.39-.11-.11.38.39.12zm-10.5-2.78l-.38-.11-.12.39.39.11zm62.84-144.28a.66.66 0 1 0-.64-1.15.67.67 0 0 0-.26.9.66.66 0 0 0 .9.25zm-73.1-4.14a1.54 1.54 0 1 0-.6 2.1 1.54 1.54 0 0 0 .6-2.1zm-25.84 122.81a1 1 0 0 0-.39 1.34 1 1 0 0 0 1.73-1 1 1 0 0 0-1.34-.34zm7.34 8.32a.86.86 0 1 0 1.17.34.86.86 0 0 0-1.17-.34zm59.31-138.21a1.54 1.54 0 1 0 2.1.6 1.54 1.54 0 0 0-2.1-.6zm-30.62 3.37a1.54 1.54 0 1 0-.6 2.1 1.56 1.56 0 0 0 .6-2.1zm8.7-3.07a1.56 1.56 0 0 0-.6 2.1 1.54 1.54 0 1 0 .6-2.1zm-19 151.61a.45.45 0 0 0 .18-.61.46.46 0 1 0-.8.44.45.45 0 0 0 .67.17zm51.37-150.37a1.54 1.54 0 0 0 1.49 2.7 1.54 1.54 0 1 0-1.49-2.7zM322.91 258a1.7 1.7 0 1 0 2.31.66 1.7 1.7 0 0 0-2.31-.66zm132-45.85a.66.66 0 1 0 1.15-.64.67.67 0 0 0-.9-.25.65.65 0 0 0-.29.87zM320.6 268.21a2 2 0 1 0 2.73.78 2 2 0 0 0-2.73-.78zm3.57 35.94a1.85 1.85 0 1 0-2.51-.72 1.86 1.86 0 0 0 2.51.72zM323 290.67a2.16 2.16 0 1 0-.83 2.94 2.16 2.16 0 0 0 .83-2.94zm6.7 33.05a2 2 0 1 0 .78-2.72 2 2 0 0 0-.78 2.72zm34.3 17.86a.41.41 0 1 0-.56-.16.41.41 0 0 0 .56.16zm-33.43-101.89a1.54 1.54 0 1 0 2.7-1.5 1.53 1.53 0 0 0-2.1-.6 1.55 1.55 0 0 0-.6 2.1zm-4.34 7.78a1.54 1.54 0 1 0 2.1.6 1.54 1.54 0 0 0-2.1-.6zm-.38 63.65a2 2 0 1 0 2.73.78 2 2 0 0 0-2.73-.78zm34.72-101.93a2 2 0 1 0 .78-2.72 2 2 0 0 0-.78 2.72zm-8.25 3.74a1.85 1.85 0 1 0 1.8 3.24 1.85 1.85 0 0 0-1.8-3.24zm-8 7.1a1.85 1.85 0 1 0 2.51.72 1.86 1.86 0 0 0-2.53-.75zm60.9-24.75a1.54 1.54 0 1 0-.6 2.1 1.56 1.56 0 0 0 .58-2.1zm-86 86.54a1.85 1.85 0 1 0 .71-2.52 1.84 1.84 0 0 0-.74 2.52zm18-53.45a1.85 1.85 0 1 0 2.52.71 1.86 1.86 0 0 0-2.55-.71zM463.46 218a.66.66 0 0 0-.26.89.66.66 0 1 0 1.15-.64.65.65 0 0 0-.89-.25zm-27-15.83a1 1 0 1 0-1.34-.38 1 1 0 0 0 1.37.41zm35 24.44l.36.11.11-.37-.37-.1zM413.73 366.7l.27.09.08-.28-.28-.08zm-11.12.23l.5.15.15-.51-.51-.14zm-10.8-.92l.5.14.15-.5-.5-.14zm-82.94-102.43a2 2 0 1 0 2.73.78 2 2 0 0 0-2.73-.78zm.95 25.4a2.16 2.16 0 1 0-2.94-.83 2.15 2.15 0 0 0 2.94.85zm-3-11.87a2 2 0 1 0 .78-2.73 2 2 0 0 0-.74 2.73zm60.67-87.62a2 2 0 1 0 2.72.78 2 2 0 0 0-2.68-.78zm-45.82 140.9a1.85 1.85 0 1 0-1.8-3.24 1.85 1.85 0 1 0 1.8 3.24zm-6.89-87.78a2.16 2.16 0 1 0 2.94.84 2.15 2.15 0 0 0-2.9-.84zm4.06-7.1a1.85 1.85 0 1 0 .72-2.51 1.85 1.85 0 0 0-.68 2.51zm58.83-49.42a2 2 0 1 0 2.73.78 2 2 0 0 0-2.69-.78zM362 354.93a.94.94 0 1 0-.91-1.65.94.94 0 1 0 .91 1.65zm69.5-166.57a1.7 1.7 0 1 0 3-1.65 1.7 1.7 0 0 0-3 1.65zM420.46 186a2 2 0 1 0 .78-2.72 2 2 0 0 0-.78 2.72zm-109.9 69.5a2 2 0 1 0 .78-2.73 2 2 0 0 0-.78 2.73zm70.21 107.84a.63.63 0 0 0 .84.24.62.62 0 1 0-.84-.24zm29.66-180.95a2 2 0 1 0 2.73.78 2 2 0 0 0-2.73-.78zm-22.21.69a2.63 2.63 0 1 0 3.57 1 2.63 2.63 0 0 0-3.57-1zM345.4 342.41a2 2 0 1 0-2.73-.78 2 2 0 0 0 2.73.78zm-5.73-135.57a2.47 2.47 0 1 0 3.36.95 2.46 2.46 0 0 0-3.36-.95zm8.79-6.84a2.16 2.16 0 1 0 2.94.84 2.16 2.16 0 0 0-2.94-.84zm8.89-6.11a2.63 2.63 0 1 0 3.56 1 2.62 2.62 0 0 0-3.56-1zm-21.8 139.18a1.85 1.85 0 1 0 .72-2.52 1.85 1.85 0 0 0-.72 2.52zm36.18 27.26a1 1 0 0 0-1-1.79 1 1 0 1 0 1 1.79zm-61-60.54a2.16 2.16 0 1 0-2.94-.84 2.16 2.16 0 0 0 2.95.84zm14.57-76.63a2.16 2.16 0 1 0 2.94.84 2.17 2.17 0 0 0-2.93-.84zm6.87-8.63a2.32 2.32 0 1 0 3.15.9 2.31 2.31 0 0 0-3.14-.9zm21.09 134.71a1.7 1.7 0 1 0-2.31-.66 1.69 1.69 0 0 0 2.32.66zM462 200.77a.9.9 0 1 0 1.23.35.9.9 0 0 0-1.23-.35zm-18-8.6a1.24 1.24 0 1 0-1.68-.48 1.23 1.23 0 0 0 1.68.48zm-45-10.32a2.63 2.63 0 1 0 3.57 1 2.63 2.63 0 0 0-3.57-1zm72.89 26.37a.9.9 0 0 0-1.58.88.9.9 0 1 0 1.58-.88zM316.77 320.51a1.85 1.85 0 1 0-2.52-.72 1.86 1.86 0 0 0 2.52.72zm-5.43-13.71a2 2 0 1 0 2.73.77 2 2 0 0 0-2.73-.77zm140.55-110a1.54 1.54 0 1 0 .6-2.1 1.56 1.56 0 0 0-.6 2.08zm27 19.85a.45.45 0 0 0 .17-.61.45.45 0 0 0-.61-.18.46.46 0 0 0-.18.62.46.46 0 0 0 .65.15zm6.79 8.57l.1-.36-.36-.1-.1.36zm6 8.9l-.36-.1-.11.35.37.11zm4.7 9.83l-.18-.05-.05.18.18.05zm-62.86 131.21l-.27-.08-.08.26.28.09zm-73.91-7.05a1.39 1.39 0 1 0-1.35-2.43 1.39 1.39 0 0 0 1.35 2.43zm-64.48-95.63a2 2 0 1 0 .77-2.73 2 2 0 0 0-.77 2.73zm32.36 67.46a2 2 0 1 0-2.73-.78 2 2 0 0 0 2.73.78zm132-155.72a1.85 1.85 0 1 0 2.52.72 1.87 1.87 0 0 0-2.57-.72zm-10.31-2.34a1.7 1.7 0 1 0 .66-2.31 1.7 1.7 0 0 0-.71 2.31zM297.45 259a2 2 0 1 0 2.73.78 2 2 0 0 0-2.73-.78zm202.15-35.19a.67.67 0 0 0 .25-.9.66.66 0 0 0-1.15.64.66.66 0 0 0 .9.26zm-61-45.94a1.7 1.7 0 1 0 .65-2.31 1.7 1.7 0 0 0-.61 2.31zm-134.47 145a2.47 2.47 0 1 0 3.36 1 2.47 2.47 0 0 0-3.32-.96zm-4.08-10.75a2.93 2.93 0 1 0 4 1.14 2.93 2.93 0 0 0-3.96-1.1zm122.49 65.13a.41.41 0 1 0 .56.16.41.41 0 0 0-.52-.12zm-90.74-29.72a1.85 1.85 0 1 0 .72-2.51 1.85 1.85 0 0 0-.68 2.55zm41.81-174.85a3.71 3.71 0 1 0 5 1.44 3.71 3.71 0 0 0-4.96-1.4zm-38.37 20.9a2.93 2.93 0 1 0 4 1.14 2.93 2.93 0 0 0-3.96-1.1zm9.18-6.5a2.78 2.78 0 1 0 3.78 1.07 2.77 2.77 0 0 0-3.74-1.03zm50.86-17.85a3.25 3.25 0 1 0 4.41 1.26 3.23 3.23 0 0 0-4.37-1.22zm98.22 45.82a.95.95 0 1 0-1.29-.37.95.95 0 0 0 1.33.41zm-82.45 164.27a.78.78 0 0 0 1.06.31.78.78 0 0 0-.76-1.37.78.78 0 0 0-.3 1.06zm66.29-181.9a1.24 1.24 0 1 0 1.67.48 1.23 1.23 0 0 0-1.67-.48zm-87.09 181.05a.82.82 0 0 0 .32-1.12.82.82 0 1 0-1.44.8.82.82 0 0 0 1.12.32zm-48.32-22.73a1.54 1.54 0 1 0-2.1-.6 1.55 1.55 0 0 0 2.1.6zm42.59-185.23a3.24 3.24 0 1 0 4.41 1.25 3.24 3.24 0 0 0-4.41-1.25zm102.27 36.76a1.39 1.39 0 1 0-1.89-.54 1.39 1.39 0 0 0 1.89.54zm-57.91-34.78a1.85 1.85 0 1 0 2.52.72 1.85 1.85 0 0 0-2.52-.72zm-75.76 8.3a4 4 0 1 0 5.46 1.56 4 4 0 0 0-5.46-1.56zm53.54-11.31a2.47 2.47 0 1 0 3.36 1 2.48 2.48 0 0 0-3.36-1zm-111.29 111.1a2.16 2.16 0 1 0 2.94.83 2.16 2.16 0 0 0-2.94-.83zm55 81.66a1.39 1.39 0 1 0-1.89-.54 1.38 1.38 0 0 0 1.87.54zm-23.1-161.52a2.93 2.93 0 1 0 4 1.14 2.93 2.93 0 0 0-4.02-1.14zm-31.51 90.68a2.31 2.31 0 1 0 3.14.9 2.32 2.32 0 0 0-3.14-.9zm120.48-117.8a2.77 2.77 0 1 0 1.08-3.77 2.77 2.77 0 0 0-1.08 3.77zm-36.18 202.86a1.23 1.23 0 1 0-1.68-.48 1.23 1.23 0 0 0 1.68.48zm124.85-143.08a.49.49 0 1 0-.48-.86.49.49 0 0 0 .48.86zm-207.68 68.27a2.78 2.78 0 1 0 3.77 1.07 2.77 2.77 0 0 0-3.77-1.07zm103.5 76.89a.53.53 0 0 0 .51.93.52.52 0 0 0 .21-.72.53.53 0 0 0-.72-.21zm-91.62-45.75a2.47 2.47 0 1 0 3.36 1 2.46 2.46 0 0 0-3.36-1zm-5.79-95.37a2.62 2.62 0 1 0 3.57 1 2.61 2.61 0 0 0-3.57-1zm165.37-46.79a1.23 1.23 0 1 0 1.68.48 1.23 1.23 0 0 0-1.68-.48zm-169.55 60.24a2 2 0 1 0 .78-2.73 2 2 0 0 0-.78 2.73zm8.74-23.35a2.46 2.46 0 1 0 3.35 1 2.46 2.46 0 0 0-3.35-1zm61.69 145.16a1 1 0 1 0-1-1.8 1 1 0 0 0 1 1.8zM313.59 218a2.78 2.78 0 1 0 3.78 1.07 2.78 2.78 0 0 0-3.78-1.07zm5.41-5.18a2.78 2.78 0 1 0 1.07-3.78 2.77 2.77 0 0 0-1.07 3.77zM363.68 177a2.93 2.93 0 1 0 4 1.14 2.94 2.94 0 0 0-4-1.14zm145.46 65.83l-.5-.14-.14.5.5.15zm3.26 10.47l-.39-.11-.12.39.4.11zm.45 54.22v.09h.09v-.1zM494.42 347h-.1v.09h.09zm-23.49 23.25v-.09h-.1v.09zm-9.35 6l.27.09.08-.27-.28-.09zm-9.18 5.17l.11-.39-.39-.11-.11.39zm-10.24 3.66l-.51-.15-.14.51.51.14zm-10.5 3.09l-.5-.15-.15.51.51.14zM390.4 161.79a3.55 3.55 0 1 0 1.38-4.83 3.56 3.56 0 0 0-1.38 4.83zm-76.86 38.28a3.55 3.55 0 1 0 1.37-4.83 3.55 3.55 0 0 0-1.37 4.83zm67.59-41.3a3.24 3.24 0 1 0 4.4 1.26 3.24 3.24 0 0 0-4.4-1.26zM368.81 166a3.71 3.71 0 1 0 1.44-5 3.71 3.71 0 0 0-1.44 5zm-66.72 47.3a2.63 2.63 0 1 0 3.57 1 2.63 2.63 0 0 0-3.57-.97zM324 355.28a2.78 2.78 0 1 0-3.78-1.08 2.79 2.79 0 0 0 3.78 1.08zm96 35.29a.67.67 0 0 0 .9.25.66.66 0 0 0-.64-1.15.67.67 0 0 0-.26.9zM287.9 257.8a2.16 2.16 0 1 0-2.9-.8 2.15 2.15 0 0 0 2.9.8zm79.88 127.87a1.7 1.7 0 1 0-2.31-.66 1.7 1.7 0 0 0 2.31.66zm10.12 2.83a1.24 1.24 0 1 0-1.68-.47 1.23 1.23 0 0 0 1.68.47zm36-231.58a3.24 3.24 0 1 0 4.41 1.26 3.24 3.24 0 0 0-4.46-1.26zm-82.34 23.79a3.4 3.4 0 1 0 4.61 1.32 3.39 3.39 0 0 0-4.66-1.32zm-8.57 6.81a3.55 3.55 0 1 0 4.83 1.38 3.56 3.56 0 0 0-4.88-1.38zM357.9 381a1.69 1.69 0 1 0-2.3-.65 1.68 1.68 0 0 0 2.3.65zm-71.17-79.14a2.63 2.63 0 1 0-3.56-1 2.62 2.62 0 0 0 3.56 1.03zm27.71 39.87a2.62 2.62 0 1 0 3.57 1 2.62 2.62 0 0 0-3.57-.97zm-28.86-51a2.47 2.47 0 1 0-3.36-1 2.48 2.48 0 0 0 3.36 1.07zM340.16 174a4 4 0 1 0 5.45 1.56 4 4 0 0 0-5.45-1.56zm9.56-5.25a4 4 0 1 0 5.46 1.56 4 4 0 0 0-5.46-1.56zM307 208.1a2.93 2.93 0 1 0 1.14-4 2.94 2.94 0 0 0-1.14 4zm-9 130a3.09 3.09 0 1 0 4.19 1.2 3.08 3.08 0 0 0-4.19-1.19zm-14.9-70.34a2.16 2.16 0 1 0 .84-2.94 2.16 2.16 0 0 0-.83 2.95zm76.57-103.63a4.17 4.17 0 1 0 5.67 1.62 4.17 4.17 0 0 0-5.66-1.61zm-77.76 114.6a2.47 2.47 0 1 0 1-3.36 2.46 2.46 0 0 0-1 3.36zM409.5 390.61a.78.78 0 0 0-.31 1.06.78.78 0 1 0 1.37-.76.78.78 0 0 0-1.06-.3zm-122-144.22a2.32 2.32 0 1 0 .9-3.15 2.32 2.32 0 0 0-.95 3.15zm100.9 144.28a1.24 1.24 0 0 0-1.21-2.16 1.22 1.22 0 0 0-.47 1.67 1.24 1.24 0 0 0 1.68.49zm-89.17-162.91a2.93 2.93 0 1 0-4-1.13 2.92 2.92 0 0 0 4 1.13zM348 375.48a1.7 1.7 0 1 0-2.3-.66 1.7 1.7 0 0 0 2.3.66zm-56.15-43.05a3.08 3.08 0 1 0 1.2-4.19 3.09 3.09 0 0 0-1.18 4.19zM428 160a2 2 0 1 0-.78 2.72A2 2 0 0 0 428 160zm-26.5 1a3.24 3.24 0 1 0 1.26-4.41 3.24 3.24 0 0 0-1.28 4.41zM289 317.8a3.55 3.55 0 1 0 4.83 1.37 3.55 3.55 0 0 0-4.83-1.37zm110.35 74.1a.91.91 0 0 0 .35-1.23.9.9 0 0 0-1.58.88.91.91 0 0 0 1.21.35zM291.9 232.79a2.62 2.62 0 1 0 3.57 1 2.63 2.63 0 0 0-3.57-1zm-5.55 75a2.63 2.63 0 1 0 3.56 1 2.62 2.62 0 0 0-3.56-.99zm41.81 53.89a2 2 0 1 0 .78-2.72 2 2 0 0 0-.78 2.73zm11 7.64a1.56 1.56 0 0 0 .6-2.11 1.55 1.55 0 0 0-2.7 1.51 1.56 1.56 0 0 0 2.09.61zm98-206.21l-.45-.12-.13.44.45.13zM524.09 252a.9.9 0 1 0 .88 1.58.91.91 0 0 0 .35-1.23.89.89 0 0 0-1.23-.35zm-3-10.79a1.09 1.09 0 0 0-.42 1.47 1.07 1.07 0 0 0 1.47.42 1.06 1.06 0 0 0 .42-1.46 1.09 1.09 0 0 0-1.47-.41zm-36.8-54a1.54 1.54 0 0 0 1.5 2.7 1.56 1.56 0 0 0 .6-2.1 1.54 1.54 0 0 0-2.1-.54zm7.72 6.87a2.16 2.16 0 1 0 2.99.92 2.15 2.15 0 0 0-3-.86zM474.79 183a2 2 0 1 0 .78-2.73 2 2 0 0 0-.78 2.73zm36.95 39.91a1.24 1.24 0 1 0 .48-1.68 1.24 1.24 0 0 0-.48 1.64zm-55.78-51a2 2 0 1 0 .78-2.73 2 2 0 0 0-.74 2.66zm10.58 2.5a1.85 1.85 0 1 0 2.52.72 1.87 1.87 0 0 0-2.52-.79zm-20.8-7a1.69 1.69 0 1 0 .66-2.31 1.69 1.69 0 0 0-.66 2.27zm60.13 46.24a1.24 1.24 0 1 0 .48-1.68 1.25 1.25 0 0 0-.48 1.64zm11.21 17.44a1.08 1.08 0 1 0 1.47.42 1.08 1.08 0 0 0-1.47-.46zm-15.55-27.83a1.39 1.39 0 1 0-.54 1.89 1.39 1.39 0 0 0 .54-1.93zm24.87 60.19l.39.11.12-.39-.4-.11zm1 22.26a.7.7 0 1 0 1.22-.69.71.71 0 0 0-.95-.27.71.71 0 0 0-.25.92zm.83-11.08a.41.41 0 1 0-.56-.16.41.41 0 0 0 .58.12zm-1.17 21.46l-.06.18h.18l.06-.18zm-1.48 10.83h-.1v.09h.09zm-3.21 10.86l.39.11.11-.39-.39-.11zm-7.75 20.33l.07-.27-.27-.08-.08.28zm-5.48 9.3l-.28-.08-.07.27.27.08zm-6.26 8.69l-.45-.12-.13.44.45.13zm-7.32 8.68l.11-.36-.36-.11-.11.37zM488 372.1l-.39-.11-.11.39.38.11zm-8.65 7.1l-.39-.11-.11.39.39.11zm-8.8 5.9l-.51-.15-.14.51.5.14zm-9.72 5.75l.15-.51-.51-.14-.14.51zm-182.5-66.92a3.24 3.24 0 1 0 4.41 1.26 3.25 3.25 0 0 0-4.41-1.26zM399.19 144.3a3.55 3.55 0 1 0 4.83 1.38 3.56 3.56 0 0 0-4.83-1.38zM274 248.84a2.62 2.62 0 1 0 3.56 1 2.62 2.62 0 0 0-3.56-1zm-2.62 14.3a2.16 2.16 0 1 0 .84-2.94 2.15 2.15 0 0 0-.84 2.94zm117.83-116.31a1.54 1.54 0 1 0 2.09.6 1.54 1.54 0 0 0-2.09-.6zM275.08 313.7a2.93 2.93 0 1 0 4 1.14 2.95 2.95 0 0 0-4-1.14zm-5.21-39.61a2.47 2.47 0 1 0 4.32-2.4 2.47 2.47 0 0 0-4.32 2.4zm64.21-106.23a4.94 4.94 0 1 0 1.92-6.71 4.94 4.94 0 0 0-1.92 6.71zm13 218a2.31 2.31 0 1 0-.89 3.14 2.31 2.31 0 0 0 .87-3.16zm9.68-232.62a3.24 3.24 0 1 0 4.4 1.26 3.24 3.24 0 0 0-4.42-1.28zm20.25-2a2.47 2.47 0 1 0 1-3.36 2.48 2.48 0 0 0-1.01 3.35zm-49.21 17.12a3.4 3.4 0 1 0 4.62 1.32 3.4 3.4 0 0 0-4.62-1.32zm-2.4 207.15a2.16 2.16 0 1 0 .84-2.94 2.17 2.17 0 0 0-.84 2.94zm88.09-228.85a1.85 1.85 0 1 0-.72 2.52 1.85 1.85 0 0 0 .72-2.52zM337 383.14a2.16 2.16 0 1 0-2.94-.84 2.16 2.16 0 0 0 2.94.84zm-49.26-160.57a2.47 2.47 0 1 0-3.36-.95 2.46 2.46 0 0 0 3.36.95zm152.89 176.58a.65.65 0 0 0 .26-.89.66.66 0 1 0-.26.89zm-32.4 5.12a1.08 1.08 0 1 0-1.47-.42 1.08 1.08 0 0 0 1.47.42zm21.84-2.34a.82.82 0 0 0-.79-1.44.82.82 0 0 0 .79 1.44zm20.11-7.32a.65.65 0 0 0-.25.89.66.66 0 0 0 .89.26.67.67 0 0 0 .26-.9.66.66 0 0 0-.9-.25zm-180.85-109.1a3.09 3.09 0 1 0 1.2-4.2 3.1 3.1 0 0 0-1.2 4.2zM418.2 402.05a.9.9 0 1 0 1.24.35.91.91 0 0 0-1.24-.35zM271.3 292.39a2.78 2.78 0 1 0 3.77 1.07 2.77 2.77 0 0 0-3.77-1.07zM434.09 151a.82.82 0 1 0-.8-1.43.82.82 0 1 0 .8 1.43zM272.76 303.17a2.63 2.63 0 1 0 3.57 1 2.63 2.63 0 0 0-3.57-1zm37.43 53.12a2.78 2.78 0 1 0 3.78 1.08 2.77 2.77 0 0 0-3.78-1.08zm-29.63-17.54a4 4 0 1 0 1.56-5.46 4 4 0 0 0-1.56 5.46zm0-110.88a2.78 2.78 0 1 0 3.78 1.07 2.77 2.77 0 0 0-3.78-1.07zM346.17 157a3.71 3.71 0 1 0 5 1.44 3.7 3.7 0 0 0-5-1.44zM299 203.78a2.16 2.16 0 1 0-2.94-.84 2.17 2.17 0 0 0 2.94.84zm77.11 197a1.69 1.69 0 1 0-2.31-.65 1.7 1.7 0 0 0 2.32.66zm-83.5-188.88a1.39 1.39 0 0 0 .53-1.9 1.39 1.39 0 1 0-.53 1.9zm63.76 179.25a1.85 1.85 0 1 0-.72 2.51 1.84 1.84 0 0 0 .73-2.5zm10.85-241.34a3.24 3.24 0 1 0 4.41 1.26 3.24 3.24 0 0 0-4.4-1.25zm-91.72 92.47a3.08 3.08 0 1 0 1.2-4.2 3.08 3.08 0 0 0-1.19 4.21zm146.12-96a2.16 2.16 0 1 0 2.94.84 2.17 2.17 0 0 0-2.93-.83zM397.5 404.52a1.54 1.54 0 1 0-2.1-.6 1.56 1.56 0 0 0 2.1.6zm-11-1.82a1.22 1.22 0 0 0 .5-1.7 1.24 1.24 0 1 0-.48 1.67zm-79.67-49.93a3.09 3.09 0 1 0-4.2-1.2 3.09 3.09 0 0 0 4.24 1.2zm9.94 15.4a2.63 2.63 0 1 0 1-3.57 2.63 2.63 0 0 0-.96 3.57zm49.74 27.08a2 2 0 1 0-.78 2.73 2 2 0 0 0 .82-2.73zm-53.14-208.41a1.85 1.85 0 0 0-1.8-3.24 1.87 1.87 0 0 0-.72 2.53 1.85 1.85 0 0 0 2.52.71zm-26.31 156.33a4 4 0 1 0 5.46 1.55 4 4 0 0 0-5.46-1.55zm19.05-148a2.16 2.16 0 1 0-2.94-.84 2.16 2.16 0 0 0 2.94.81zM319 175.42a3.09 3.09 0 1 0 4.19 1.2 3.09 3.09 0 0 0-4.19-1.2zM444.37 153l.11-.39-.39-.11-.11.39zm10.63 3.32l-.39-.12-.11.39.39.11zm61.29 45.06a2 2 0 1 0-.78 2.73 2 2 0 0 0 .76-2.73zM260.81 281a2 2 0 1 0-2.73-.78 2 2 0 0 0 2.73.78zm4.24-32.44a2.16 2.16 0 1 0-2.93-.84 2.16 2.16 0 0 0 2.93.82zm4.55-25a2.47 2.47 0 1 0 3.35 1 2.45 2.45 0 0 0-3.35-1.05zm7-5.57a2.47 2.47 0 1 0-3.36-.95 2.46 2.46 0 0 0 3.39.9zm222.64-34.26a2.47 2.47 0 1 0 3.36 1 2.48 2.48 0 0 0-3.33-1.05zM439 412.89a1.23 1.23 0 1 0-1.68-.48 1.23 1.23 0 0 0 1.68.48zM428.22 415a1 1 0 1 0-1-1.79 1 1 0 0 0-.4 1.39 1 1 0 0 0 1.4.4zm-124.76-51.69a2.93 2.93 0 1 0-1.14 4 2.94 2.94 0 0 0 1.14-4zm-2.13-181.72a1.85 1.85 0 1 0-2.52-.72 1.83 1.83 0 0 0 2.52.72zm-7.41 8.34a1.85 1.85 0 1 0-2.52-.72 1.86 1.86 0 0 0 2.52.72zm-12.42 18.19a2 2 0 1 0-2.74-.78 2 2 0 0 0 2.74.78zm-10.11 131.59a3.55 3.55 0 1 0 4.82 1.38 3.55 3.55 0 0 0-4.82-1.38zm4.94 9.57a3.55 3.55 0 1 0 4.82 1.38 3.54 3.54 0 0 0-4.82-1.38zm16.29 3.15a4 4 0 1 0 5.45 1.56 4 4 0 0 0-5.45-1.56zm-8-154.43a2.16 2.16 0 1 0 .84-2.94 2.17 2.17 0 0 0-.81 2.94zm29.08 184.06a2.62 2.62 0 1 0 1-3.57 2.62 2.62 0 0 0-.97 3.57zm-46.18-52.26a3.24 3.24 0 1 0 4.41 1.25 3.25 3.25 0 0 0-4.41-1.25zm59.4 56.66a2.93 2.93 0 1 0-1.14 4 2.95 2.95 0 0 0 1.14-4zm177.18-12.08a.78.78 0 0 0-.76-1.37.79.79 0 0 0-.3 1.07.79.79 0 0 0 1.06.3zm-54.83 35.11a1.07 1.07 0 0 0 .42-1.45 1.07 1.07 0 1 0-1.87 1 1.06 1.06 0 0 0 1.45.45zm82.48-82.78a.78.78 0 0 0 .75 1.37.79.79 0 0 0 .31-1.07.78.78 0 0 0-1.06-.3zm-5-104a1.7 1.7 0 1 0-2.3-.66 1.69 1.69 0 0 0 2.31.62zm-6.89-12.84a1.69 1.69 0 1 0 2.3.65 1.68 1.68 0 0 0-2.29-.69zm2.94 136.64a.82.82 0 1 0 .8 1.44.82.82 0 1 0-.8-1.44zm6.94-116.89a1.7 1.7 0 1 0 2.3.66 1.69 1.69 0 0 0-2.29-.7zm-60.28 171.31a.95.95 0 1 0-1.28-.37.94.94 0 0 0 1.28.37zm-115 2.5a2.32 2.32 0 1 0-.9 3.15 2.32 2.32 0 0 0 .91-3.15zm-9.88-4.94a2.31 2.31 0 1 0-.9 3.15 2.32 2.32 0 0 0 .91-3.15zm172.92-41.4a.45.45 0 0 0-.44-.79.46.46 0 0 0-.18.62.46.46 0 0 0 .63.17zm-153.12 50.5a2 2 0 1 0-.78 2.73 2 2 0 0 0 .79-2.73zm163.46-70.43a.4.4 0 0 0-.16.55.41.41 0 1 0 .72-.4.42.42 0 0 0-.55-.15zm11.81-73.45a1 1 0 1 0-1.4-.4 1 1 0 0 0 1.41.4zM335.31 393a2.46 2.46 0 1 0-1 3.35 2.46 2.46 0 0 0 1-3.35zm205.75-120.09a1.23 1.23 0 1 0-.47 1.68 1.23 1.23 0 0 0 .47-1.68zm-7.69-32.85a1.54 1.54 0 1 0 2.1.6 1.55 1.55 0 0 0-2.1-.6zM396.23 414.54a1.7 1.7 0 1 0-.66 2.31 1.7 1.7 0 0 0 .66-2.31zm138.87-98a.7.7 0 1 0 .68 1.22.7.7 0 0 0-.68-1.22zm.2-63.48a2 2 0 1 0 .78-2.73 2 2 0 0 0-.78 2.67zM385.69 412.85a2 2 0 1 0-.78 2.72 2 2 0 0 0 .78-2.72zM540 296.12a.86.86 0 1 0-.83-1.51.86.86 0 1 0 .83 1.51zm0-12.33a.7.7 0 0 0 .68 1.22.7.7 0 0 0 .27-.95.69.69 0 0 0-.95-.27zm-278.57-13.93a2 2 0 1 0-2.73-.77 2 2 0 0 0 2.73.77zM458 405.31a1.23 1.23 0 1 0 .47-1.68 1.23 1.23 0 0 0-.47 1.68zm-41.82 8.82a1.24 1.24 0 1 0 1.68.48 1.24 1.24 0 0 0-1.65-.48zM260 258.2a2.16 2.16 0 1 0 .83-2.94 2.15 2.15 0 0 0-.83 2.94zm115.17 152.26a2.16 2.16 0 1 0-.84 2.93 2.15 2.15 0 0 0 .84-2.93zm107-237.84a1.7 1.7 0 1 0 .66-2.31 1.7 1.7 0 0 0-.67 2.31zM406.3 416.91a1.26 1.26 0 0 0 .48-1.69 1.24 1.24 0 0 0-1.68-.47 1.22 1.22 0 0 0-.48 1.67 1.24 1.24 0 0 0 1.68.49zM506.83 192a2.16 2.16 0 1 0 2.94.84 2.16 2.16 0 0 0-2.94-.84zm-44.35-30.2a2.31 2.31 0 1 0 .9-3.14 2.31 2.31 0 0 0-.9 3.14zm10.85 2.36a1.85 1.85 0 1 0 2.52.71 1.85 1.85 0 0 0-2.52-.71zm37.18 200.54a.9.9 0 1 0 1.22.35.88.88 0 0 0-1.22-.35zM488 387.8a.75.75 0 1 0-.29 1 .74.74 0 0 0 .29-1zm-230.19-96.65a2.32 2.32 0 1 0 .9-3.14 2.32 2.32 0 0 0-.9 3.14zm232.71-111.82a1.85 1.85 0 1 0 .72-2.52 1.85 1.85 0 0 0-.72 2.52zm-12.79 215.74A.78.78 0 1 0 478 394a.77.77 0 0 0-.27 1.07zM495 381.73a.73.73 0 0 0 1 .29.74.74 0 1 0-1-.29zm-184.16-10a3.09 3.09 0 1 0-1.2 4.19 3.08 3.08 0 0 0 1.21-4.19zm-51.28-73.17a2.78 2.78 0 1 0 3.77 1.08 2.78 2.78 0 0 0-3.76-1.08zm279 7.42a.7.7 0 0 0-1.23.68.7.7 0 0 0 1.23-.68zm-274.81 13.07a3.7 3.7 0 1 0 5 1.44 3.71 3.71 0 0 0-5-1.44zm-2.48-10a3.09 3.09 0 1 0 4.2 1.2 3.09 3.09 0 0 0-4.2-1.16zm2.81-71.43a3.09 3.09 0 1 0 1.2-4.2 3.09 3.09 0 0 0-1.2 4.24zm44.57-65.29l-.39-.11-.11.39.39.11zm31.9-21.33a4.78 4.78 0 1 0 1.86-6.5 4.77 4.77 0 0 0-1.86 6.5zm45.59-15.62a1 1 0 1 0 1.34.38 1 1 0 0 0-1.34-.42zm-64.17 26a4.32 4.32 0 1 0 1.67-5.88 4.33 4.33 0 0 0-1.64 5.89zm76.37-24.54a1.7 1.7 0 1 0-2.3-.66 1.69 1.69 0 0 0 2.3.67zm-23.63-.44a2.16 2.16 0 1 0 2.94.84 2.16 2.16 0 0 0-2.94-.83zM318 167.62a2.47 2.47 0 1 0-3.36-1 2.46 2.46 0 0 0 3.36 1zm48.32-25a2.16 2.16 0 1 0-2.94-.84 2.17 2.17 0 0 0 2.93.88zM336 155.6a2.31 2.31 0 1 0-3.15-.89 2.3 2.3 0 0 0 3.15.89zm16.36-9.78a2.78 2.78 0 1 0 1.07-3.77 2.77 2.77 0 0 0-1.09 3.77zm56-11.23l-.14.51.5.14.15-.5zm11.4 1.54a.49.49 0 0 0-.48-.86.49.49 0 1 0 .48.86zm10.13 1.05a.49.49 0 0 0 .67.19.48.48 0 0 0 .19-.67.5.5 0 0 0-.67-.19.49.49 0 0 0-.24.67zm11.39 1.88l-.5-.14-.15.5.51.14zM246.83 293.91a2.63 2.63 0 1 0 3.57 1 2.63 2.63 0 0 0-3.57-1zm2.46-43a2 2 0 1 0 2.73.78 2 2 0 0 0-2.73-.77zm1 64.06a3.24 3.24 0 1 0 4.4 1.26 3.24 3.24 0 0 0-4.45-1.23zm31.8 43.6a3.86 3.86 0 1 0 5.25 1.5 3.87 3.87 0 0 0-5.34-1.49zm16.88 23.77a3.55 3.55 0 1 0-4.83-1.38 3.56 3.56 0 0 0 4.78 1.39zm7.86 8.29a3.86 3.86 0 1 0-5.24-1.5 3.85 3.85 0 0 0 5.19 1.51zm-60.39-107.55a2.47 2.47 0 1 0 3.36 1 2.48 2.48 0 0 0-3.36-1zM426.21 428a1.54 1.54 0 0 0-1.5-2.7 1.54 1.54 0 1 0 1.5 2.7zm64.1-266.75a.66.66 0 0 0 .64 1.15.67.67 0 0 0 .26-.9.66.66 0 0 0-.9-.27zm-2.65 242a1.24 1.24 0 1 0-2.16 1.2 1.24 1.24 0 0 0 2.16-1.2zM292.05 374a3.7 3.7 0 1 0-5-1.44 3.7 3.7 0 0 0 5 1.44zm-41.13-64.7a2.62 2.62 0 1 0-3.57-1 2.62 2.62 0 0 0 3.57 1zm1.94 15.91a3.55 3.55 0 1 0 4.83 1.37 3.54 3.54 0 0 0-4.83-1.37zm292.49-86.87a2.63 2.63 0 1 0 3.57 1 2.63 2.63 0 0 0-3.57-1zm-1.19 89.18a1.23 1.23 0 1 0 .47-1.68 1.23 1.23 0 0 0-.47 1.68zM541 231.64a2.78 2.78 0 1 0 1.08-3.77 2.78 2.78 0 0 0-1.08 3.77zm7.48 17.74a2 2 0 1 0 2.73.78 2 2 0 0 0-2.78-.78zm.71 68.64a2 2 0 1 0-2.73-.78 2 2 0 0 0 2.68.76zm4.48-24a2 2 0 1 0-.78 2.73 2 2 0 0 0 .73-2.75zm-3.89 10.28a1.54 1.54 0 1 0 2.1.6 1.53 1.53 0 0 0-2.15-.63zm3.9-21.3a1.54 1.54 0 1 0-.6 2.1 1.55 1.55 0 0 0 .6-2.1zm-17.86 64.63a1.23 1.23 0 1 0 .48-1.68 1.23 1.23 0 0 0-.48 1.63zm-87.4 73.67a1.56 1.56 0 0 0-2.1-.6 1.54 1.54 0 1 0 2.1.6zM550.2 260.16a1.85 1.85 0 1 0 2.52.72 1.86 1.86 0 0 0-2.52-.72zm-79.49-111.4a2.16 2.16 0 1 0 2.94.84 2.17 2.17 0 0 0-2.94-.84zM373 422.5a2.16 2.16 0 1 0-.84 2.93 2.16 2.16 0 0 0 .84-2.93zm32.47 4.5a1.86 1.86 0 1 0-.72 2.52 1.85 1.85 0 0 0 .72-2.52zm136.66-88.78a1.23 1.23 0 1 0-1.68-.48 1.23 1.23 0 0 0 1.68.44zM479.44 157a2.16 2.16 0 1 0 .84-2.94 2.16 2.16 0 0 0-.84 2.94zm-65.87 271.2a1.23 1.23 0 1 0 2.16-1.19 1.23 1.23 0 0 0-2.16 1.19zm45.6-280.86a2.93 2.93 0 1 0 1.13-4 2.93 2.93 0 0 0-1.13 3.95zm58.76 228a1.39 1.39 0 1 0 .54-1.89 1.4 1.4 0 0 0-.54 1.84zm19.55-157.9a2.93 2.93 0 1 0 4 1.14 2.94 2.94 0 0 0-4-1.19zm-5.23 140.55a1.24 1.24 0 0 0-1.2-2.16 1.25 1.25 0 0 0-.48 1.68 1.23 1.23 0 0 0 1.68.43zM451.87 142.7a.54.54 0 0 0 .21-.73.53.53 0 1 0-.21.73zM264.43 360.36a3.4 3.4 0 1 0 1.32-4.61 3.4 3.4 0 0 0-1.32 4.61zm129.35 68.77a2.16 2.16 0 1 0-2.93-.83 2.15 2.15 0 0 0 2.93.83zM258.77 220a1.24 1.24 0 1 0 1.68.48 1.24 1.24 0 0 0-1.68-.48zm74.07 185.72a2.47 2.47 0 1 0-1 3.36 2.47 2.47 0 0 0 1-3.41zm191.84-39.19a1.08 1.08 0 0 0 1.46.41 1.05 1.05 0 0 0 .41-1.45 1.07 1.07 0 0 0-1.45-.42 1.09 1.09 0 0 0-.42 1.41zm-24.84-196.9a1.23 1.23 0 1 0-1.68-.48 1.23 1.23 0 0 0 1.68.48zm-246.21 74a2.16 2.16 0 1 0-2.94-.84 2.15 2.15 0 0 0 2.94.81zm213.06 169.3a1.54 1.54 0 1 0 2.1.6 1.55 1.55 0 0 0-2.1-.6zM253.49 232.5a2.32 2.32 0 1 0 .9-3.15 2.3 2.3 0 0 0-.9 3.15zm11.18-20a1.69 1.69 0 1 0-2.31-.66 1.69 1.69 0 0 0 2.31.64zM362 423.19a2.78 2.78 0 1 0-3.78-1.08 2.78 2.78 0 0 0 3.78 1.08zm21.82 1.54a2.32 2.32 0 1 0-.9 3.15 2.31 2.31 0 0 0 .88-3.15zm-30.91-9.1a2.63 2.63 0 1 0-1 3.57 2.63 2.63 0 0 0 .98-3.57zm149.63-24.37a1.54 1.54 0 1 0 .6-2.1 1.55 1.55 0 0 0-.62 2.1zm8-7.72a1.54 1.54 0 1 0 .6-2.1 1.56 1.56 0 0 0-.6 2.1zm-168.13 27.38a2.47 2.47 0 1 0-1 3.36 2.46 2.46 0 0 0 1-3.36zm163-233.76a2.47 2.47 0 1 0 .95-3.36 2.46 2.46 0 0 0-.94 3.36zM456.35 417a1.85 1.85 0 1 0 2.52.71 1.85 1.85 0 0 0-2.52-.71zm75-205.18a2.93 2.93 0 1 0 1.14-4 2.95 2.95 0 0 0-1.09 3.99zm-282.03 52.85a1.54 1.54 0 1 0-1.5-2.69 1.54 1.54 0 1 0 1.5 2.69zm276.53-62.43a2.93 2.93 0 1 0 1.14-4 2.94 2.94 0 0 0-1.14 4zm-5.05-12.4a2.31 2.31 0 1 0 3.15.89 2.3 2.3 0 0 0-3.15-.89zm-24.48 207.09a1.08 1.08 0 1 0-.42 1.47 1.08 1.08 0 0 0 .42-1.47zm-235.51-51.06a3.39 3.39 0 1 0 4.62 1.32 3.39 3.39 0 0 0-4.62-1.32zM513.71 181a2.93 2.93 0 1 0 4 1.14 2.95 2.95 0 0 0-4-1.14zm-76.1 243a1.53 1.53 0 0 0-2.1-.6 1.54 1.54 0 1 0 1.5 2.69 1.53 1.53 0 0 0 .6-2.09zm-181.12-88.32a3.4 3.4 0 1 0 4.62 1.32 3.4 3.4 0 0 0-4.62-1.32zm297.44-63.91a2 2 0 1 0-.78 2.72 2 2 0 0 0 .78-2.72zm-238.16 121a3.24 3.24 0 1 0-1.26 4.41 3.25 3.25 0 0 0 1.26-4.39zm-67.23-117A1.85 1.85 0 1 0 246 275a1.85 1.85 0 0 0 2.54.75zm76.16 123.59a3.39 3.39 0 1 0-1.32 4.61 3.4 3.4 0 0 0 1.32-4.61zM476 410.17a1.39 1.39 0 1 0 .54-1.89 1.39 1.39 0 0 0-.54 1.89zM269.29 201.36l-.27-.09-.08.28.28.07zm35.21-40.84a.66.66 0 0 0-.64-1.15.66.66 0 1 0 .64 1.15zm-28.94 33.15a1.54 1.54 0 1 0-2.1-.6 1.53 1.53 0 0 0 2.1.6zm48.21-43.74a3.24 3.24 0 1 0-4.41-1.26 3.25 3.25 0 0 0 4.41 1.26zm-41.2 35.31a2.32 2.32 0 1 0-3.15-.9 2.32 2.32 0 0 0 3.15.9zm6.49-9.51a.87.87 0 0 0 .33-1.18.86.86 0 0 0-1.51.84.87.87 0 0 0 1.18.34zm24.08-22a.66.66 0 0 0 .26-.89.67.67 0 0 0-.9-.26.66.66 0 0 0 .64 1.15zm18.28-12.32h-.09v.08h.1zm30.8-11.75a.66.66 0 1 0-.89-.26.66.66 0 0 0 .89.26zM342 137.82a1.39 1.39 0 1 0-1.89-.54 1.4 1.4 0 0 0 1.89.54zm9.28-5.64a.45.45 0 0 0-.17.62.44.44 0 0 0 .61.17.44.44 0 0 0 .17-.61.45.45 0 0 0-.6-.18zm21.41-5.78l-.5-.14-.15.5.5.15zm10.49-2v.08h.1v-.08zm11.13-1.16l-.27-.08-.08.28.27.08zm10.92-.59l-.36-.1-.11.36.36.11zm18.77 3.18a3.24 3.24 0 1 0 1.26-4.41 3.25 3.25 0 0 0-1.26 4.41zm-8.72-3.74a1.24 1.24 0 1 0 1.68.48 1.23 1.23 0 0 0-1.67-.48zm22.85 3.69l-.5-.14-.14.51.5.14zm10.58 3.72a.9.9 0 1 0-1.23-.35.91.91 0 0 0 1.24.35zm10.42 2.39l-.27-.07-.07.26.27.09zm28 12a2.31 2.31 0 1 0 3.14.9 2.32 2.32 0 0 0-3.11-.95zm-16.76-5.33a3.24 3.24 0 1 0-4.4-1.26 3.24 3.24 0 0 0 4.43 1.21zm9.59 3.86a2 2 0 1 0-2.73-.78 2 2 0 0 0 2.77.73zm17.63 9.56l-.19-.05v.19l.17.05zM281.16 380.15a3.86 3.86 0 1 0-5.25-1.5 3.87 3.87 0 0 0 5.25 1.5zm24 18.91a4 4 0 1 0-1.56 5.45 4 4 0 0 0 1.57-5.45zm242.28-43.33a2 2 0 1 0-.78 2.73 2 2 0 0 0 .79-2.73zM288 388.5a3.7 3.7 0 1 0-5-1.44 3.7 3.7 0 0 0 5 1.44zm148 48a1.85 1.85 0 1 0-.72 2.52 1.85 1.85 0 0 0 .72-2.49zm59.66-24.39a1.24 1.24 0 1 0-.48 1.68 1.24 1.24 0 0 0 .51-1.65zm-245.42-60.4a3.24 3.24 0 1 0 4.4 1.26 3.24 3.24 0 0 0-4.4-1.26zm271.55-179.3a1.24 1.24 0 1 0 1.68.48 1.23 1.23 0 0 0-1.68-.48zM313.53 405.77A3.86 3.86 0 1 0 312 411a3.87 3.87 0 0 0 1.53-5.23zm-55.21-38.51a3.24 3.24 0 1 0-4.4-1.26 3.24 3.24 0 0 0 4.4 1.26zm280.3-165.81a3.86 3.86 0 1 0 1.5-5.24 3.86 3.86 0 0 0-1.5 5.24zm-54.34 218a1.39 1.39 0 1 0 .54-1.89 1.4 1.4 0 0 0-.54 1.87zm-9.83 5.09a1.69 1.69 0 1 0 .66-2.31 1.69 1.69 0 0 0-.66 2.29zm62.42-232.43a1.85 1.85 0 1 0-2.51-.72 1.85 1.85 0 0 0 2.51.7zM528.94 182a.54.54 0 0 0 .73.21.53.53 0 1 0-.52-.93.52.52 0 0 0-.21.72zm37.63 100a2.16 2.16 0 1 0-.84 2.94 2.15 2.15 0 0 0 .84-2.94zM330 422.54a3.09 3.09 0 1 0-4.19-1.2 3.09 3.09 0 0 0 4.19 1.2zm181.4-255.2a3.55 3.55 0 1 0 1.37-4.82 3.54 3.54 0 0 0-1.35 4.82zm55.09 125.42a2.62 2.62 0 1 0-1 3.57 2.62 2.62 0 0 0 1.02-3.57zm-53 105.72a1.7 1.7 0 1 0-.66 2.31 1.7 1.7 0 0 0 .7-2.31zm48.33-95.66a2.32 2.32 0 1 0 3.15.9 2.32 2.32 0 0 0-3.11-.9zm-36.15 81.8a1.85 1.85 0 1 0 .72-2.52 1.87 1.87 0 0 0-.68 2.52zM381.2 440.19a2.63 2.63 0 1 0-3.57-1 2.63 2.63 0 0 0 3.57 1zm-41.38-12.74a3.24 3.24 0 1 0-4.41-1.25 3.23 3.23 0 0 0 4.41 1.25zm10.18 4.64a3.24 3.24 0 1 0-4.41-1.26 3.24 3.24 0 0 0 4.41 1.26zm154.92-26.36a1.39 1.39 0 1 0-.54 1.89 1.38 1.38 0 0 0 .55-1.89zm1-248.16a1 1 0 0 0-.4 1.4 1 1 0 0 0 1.8-1 1 1 0 0 0-1.38-.4zm-261.09 70.1a1.24 1.24 0 1 0-1.68-.48 1.24 1.24 0 0 0 1.7.48zm4-10.19a1.24 1.24 0 1 0-1.68-.48 1.24 1.24 0 0 0 1.71.48zm-12 54.2a2.32 2.32 0 1 0-3.15-.9 2.32 2.32 0 0 0 3.2.9zm-1.66-12.09a1.85 1.85 0 1 0 .72-2.51 1.85 1.85 0 0 0-.67 2.51zm325-11.66A2.78 2.78 0 1 0 564 249a2.78 2.78 0 0 0-3.76-1.07zm2.17 70a2.62 2.62 0 1 0-3.57-1 2.63 2.63 0 0 0 3.64 1.01zM453.8 433a2 2 0 1 0 .78-2.73 2 2 0 0 0-.78 2.73zm104-195.58a2.78 2.78 0 1 0 3.77 1.08 2.77 2.77 0 0 0-3.79-1.07zm-315.42 1.81a2.47 2.47 0 1 0-3.36-1 2.47 2.47 0 0 0 3.34 1.01zM464 429.3a2 2 0 1 0 .78-2.73 2 2 0 0 0-.78 2.73zm102.82-158.45a2.63 2.63 0 1 0-1 3.57 2.63 2.63 0 0 0 1-3.57zM320.75 417.21a3.71 3.71 0 1 0-5-1.44 3.7 3.7 0 0 0 5 1.44zM562.1 259a2.78 2.78 0 1 0 3.78 1.08 2.78 2.78 0 0 0-3.78-1.08zM298 391.12a4.78 4.78 0 1 0-1.85 6.5 4.78 4.78 0 0 0 1.85-6.5zm235.32-17.41a1.39 1.39 0 1 0 1.89.54 1.38 1.38 0 0 0-1.92-.54zm-291.49-42.62a3.7 3.7 0 1 0 5 1.44 3.71 3.71 0 0 0-5-1.44zM403.84 439a2.47 2.47 0 1 0-1 3.36 2.46 2.46 0 0 0 1-3.36zM559.4 328.46a2.47 2.47 0 1 0-3.36-1 2.48 2.48 0 0 0 3.36 1zM446.11 436.89a1.85 1.85 0 1 0-1.8-3.24 1.85 1.85 0 0 0 1.8 3.24zM392.75 438a2.32 2.32 0 1 0-.9 3.14 2.32 2.32 0 0 0 .9-3.14zm-160.4-145a3.55 3.55 0 1 0 1.37-4.82 3.53 3.53 0 0 0-1.37 4.82zm5.44-46.71a1.85 1.85 0 1 0 2.52.72 1.87 1.87 0 0 0-2.52-.74zm1.21 74.29a3.55 3.55 0 1 0 4.8 1.42 3.55 3.55 0 0 0-4.8-1.42zM411.67 438.3a2 2 0 1 0 2.73.78 2 2 0 0 0-2.73-.78zM236.73 310.37a3.39 3.39 0 1 0 4.62 1.32 3.38 3.38 0 0 0-4.62-1.32zm-.24-27.6a2.47 2.47 0 1 0-3.35-1 2.46 2.46 0 0 0 3.35 1zm308.88-77a3.86 3.86 0 1 0 5.24 1.5 3.85 3.85 0 0 0-5.24-1.5zM541 367.45a1.69 1.69 0 1 0-2.3-.65 1.69 1.69 0 0 0 2.3.65zm-179.76 64a2.78 2.78 0 1 0-1.08 3.78 2.76 2.76 0 0 0 1.04-3.78zm63.73 6.86a1.69 1.69 0 1 0-.65 2.31 1.69 1.69 0 0 0 .61-2.31zM552 349.14a2.47 2.47 0 1 0-3.36-1 2.47 2.47 0 0 0 3.36 1zm-277.24 21.53a3.08 3.08 0 1 0-4.19-1.2 3.07 3.07 0 0 0 4.19 1.2zM519 390.13a1.85 1.85 0 1 0 2.52.71 1.85 1.85 0 0 0-2.52-.71zM553.32 231a2.93 2.93 0 1 0 1.14-4 2.93 2.93 0 0 0-1.14 4zm-314.91 74.48a3.55 3.55 0 1 0-4.83-1.38 3.55 3.55 0 0 0 4.83 1.38zM371.7 434.23a2.78 2.78 0 1 0-1.08 3.78 2.79 2.79 0 0 0 1.08-3.78zm-127.87-87.46a4 4 0 1 0 1.55-5.46 4 4 0 0 0-1.55 5.46zm311.64-8.64a1.7 1.7 0 1 0-2.31-.66 1.7 1.7 0 0 0 2.31.66zm-5.09-121.92a3.4 3.4 0 1 0 4.61 1.32 3.4 3.4 0 0 0-4.61-1.32zm-297.45-9.92l-.27-.08-.08.27.27.09zm4.59-9.37l.27.08.08-.27-.27-.08zm6.1-9.49l-.18-.05-.05.19.18.05zm7.07-7.09a2 2 0 1 0-2.73-.78 2 2 0 0 0 2.73.78zm6.57-9.47a1.24 1.24 0 1 0-1.68-.48 1.23 1.23 0 0 0 1.68.48zm7.16-9l-.27-.08-.08.27.28.08zm16.24-14.54l-.18-.05-.05.18h.18zm8.76-6.45l-.27-.08-.07.27.26.08zm9.15-5.89l-.18-.06-.05.19h.18zm9.57-5.56l-.18-.05v.18l.18.05zm31.23-10.47a1.85 1.85 0 0 0-1.8-3.24 1.85 1.85 0 1 0 1.8 3.24zm9.94-4.33l-.27-.07-.08.26.27.08zm10.69-1.72l.06-.18h-.19l-.05.18zm41 0a3.08 3.08 0 1 0 1.2-4.2 3.08 3.08 0 0 0-1.29 4.23zm-19-1.65a.59.59 0 0 0 .23-.79.58.58 0 1 0-.23.79zm7.89 1a3.24 3.24 0 1 0 1.26-4.41 3.25 3.25 0 0 0-1.34 4.4zm25.35 2.09a1.57 1.57 0 0 0 .6-2.11 1.55 1.55 0 1 0-.6 2.11zm10.5 2.16a1.56 1.56 0 0 0 .6-2.1 1.55 1.55 0 0 0-2.71 1.5 1.57 1.57 0 0 0 2.03.59zm-54.85-4.6a.57.57 0 1 0-.56-1 .57.57 0 1 0 .56 1zm64.86 6.09l-.27-.09-.08.28.27.08zm10.25 3.35h-.09v.09h.08zm10.26 4.09l-.39-.11-.11.39.38.11zm10.15 4.94l-.36-.11-.11.37.37.11zm9.29 5.56l-.39-.11-.11.39.39.11zm9.12 5.83l-.27-.07-.09.27.28.07zm16.25 13a1.08 1.08 0 1 0 1.47.42 1.07 1.07 0 0 0-1.45-.39zm-7.4-5.77a.58.58 0 1 0-.55-1 .58.58 0 1 0 .55 1zm16.16 14.19l-.5-.14-.15.5.5.14zm7.17 8.61l.1-.36-.36-.11-.1.36zM433.45 452a1.85 1.85 0 1 0-2.51-.72 1.86 1.86 0 0 0 2.51.72zm10.55-2.12a1.7 1.7 0 1 0-2.31-.66 1.7 1.7 0 0 0 2.31.66zm-114.7-19a3.4 3.4 0 1 0-1.32 4.61 3.4 3.4 0 0 0 1.35-4.64zm40.21 15.73a2.78 2.78 0 1 0-1.08 3.78 2.79 2.79 0 0 0 1.11-3.81zm-83.47-48.91a3.7 3.7 0 1 0-1.44 5 3.69 3.69 0 0 0 1.47-5.03zm34 27.47a3.7 3.7 0 1 0-1.44 5 3.71 3.71 0 0 0 1.4-5.03zm19.72 10.35a4 4 0 1 0-1.56 5.45 4 4 0 0 0 1.55-5.48zm116 8.69a2.32 2.32 0 1 0-.9 3.15 2.33 2.33 0 0 0 .87-3.18zm-216.48-86.59a3.55 3.55 0 1 0 4.83 1.38 3.56 3.56 0 0 0-4.83-1.38zm233.35 81.56a2 2 0 1 0 .78-2.73 2 2 0 0 0-.78 2.73zm-59.56 11.72a2.78 2.78 0 1 0-1.08 3.78 2.79 2.79 0 0 0 1.08-3.78zm-63.7-11.33a3.55 3.55 0 1 0-1.37 4.83 3.55 3.55 0 0 0 1.37-4.83zm-71-49.55a3.24 3.24 0 1 0-1.25 4.4 3.23 3.23 0 0 0 1.29-4.42zm144.94 60.49a2 2 0 1 0-.78 2.72 2 2 0 0 0 .82-2.72zM234.89 347.18a4 4 0 1 0 5.46 1.56 4 4 0 0 0-5.46-1.56zm32.32 32.94a3.24 3.24 0 1 0 4.41 1.25 3.23 3.23 0 0 0-4.41-1.25zm-17.85-11.55a3.55 3.55 0 1 0-1.38 4.82 3.55 3.55 0 0 0 1.38-4.82zm233.42 65.52a1.7 1.7 0 1 0 .66-2.31 1.7 1.7 0 0 0-.66 2.31zM264 376.54a3.09 3.09 0 1 0-4.2-1.2 3.09 3.09 0 0 0 4.2 1.2zm231.36 50.65a1.7 1.7 0 1 0-3 1.65 1.7 1.7 0 0 0 3-1.65zM230.65 336.7a4.17 4.17 0 1 0 5.66 1.62 4.16 4.16 0 0 0-5.66-1.62zm-3.16-10.7a4.63 4.63 0 1 0 6.29 1.8 4.63 4.63 0 0 0-6.29-1.8zm-2.33-10a3.71 3.71 0 1 0 5 1.44 3.71 3.71 0 0 0-5-1.44zm240.39 128.22a2.47 2.47 0 1 0-3.35-1 2.46 2.46 0 0 0 3.35 1zm-106.53-1a2.93 2.93 0 1 0-1.13 4 2.92 2.92 0 0 0 1.11-3.96zm20.25 9.26a2.78 2.78 0 1 0-3.78-1.08 2.77 2.77 0 0 0 3.78 1.12zm-155.88-147.3a3.86 3.86 0 1 0 5.24 1.5 3.84 3.84 0 0 0-5.24-1.5zm77.22 112.63a3.86 3.86 0 1 0-5.25-1.5 3.87 3.87 0 0 0 5.25 1.5zm-8.11-7.12a4 4 0 1 0-5.46-1.56 4 4 0 0 0 5.46 1.56zM309.18 424a3.4 3.4 0 1 0-4.62-1.32 3.4 3.4 0 0 0 4.62 1.32zm81.68 25.85a2.63 2.63 0 1 0-1 3.57 2.62 2.62 0 0 0 1-3.53zm11.14 1.2a2.47 2.47 0 0 0-4.32 2.4 2.47 2.47 0 0 0 4.32-2.4zm-180.15-157a3.86 3.86 0 1 0 5.25 1.49 3.85 3.85 0 0 0-5.26-1.47zM572.3 327.8a2.62 2.62 0 1 0-3.57-1 2.62 2.62 0 0 0 3.56 1.02zm-3.09 10.5a2.63 2.63 0 1 0-3.57-1 2.63 2.63 0 0 0 3.56 1.02zm-17.57-137.7a4.32 4.32 0 1 0 1.68-5.88 4.33 4.33 0 0 0-1.68 5.88zm13.54 148.21a2.62 2.62 0 1 0-3.56-1 2.61 2.61 0 0 0 3.56 1zm-60.62 72.29a1.85 1.85 0 1 0-.72 2.52 1.85 1.85 0 0 0 .72-2.52zm74.57-151a2.93 2.93 0 1 0-1.14 4 2.95 2.95 0 0 0 1.14-4.02zm-2.82 43.38a3.24 3.24 0 1 0-1.26 4.41 3.23 3.23 0 0 0 1.26-4.43zm-351.48-23.75a3.55 3.55 0 1 0-4.83-1.37 3.54 3.54 0 0 0 4.83 1.37zm-.6-24.17a.86.86 0 0 0 .34-1.17.87.87 0 0 0-1.18-.34.85.85 0 0 0-.33 1.17.86.86 0 0 0 1.17.34zM552 193a4.32 4.32 0 1 0-5.87-1.67A4.31 4.31 0 0 0 552 193zm-8-12a1 1 0 1 0-1.39-.4 1 1 0 0 0 1.39.4zm17 178a2.93 2.93 0 1 0-4-1.14 2.93 2.93 0 0 0 4 1.14zm-336.19-80a3.55 3.55 0 1 0-4.82-1.38 3.55 3.55 0 0 0 4.83 1.31zm286.1 135.19a1.7 1.7 0 1 0 2.31.66 1.71 1.71 0 0 0-2.31-.66zm64.61-133.88a2.47 2.47 0 1 0 3.36 1 2.46 2.46 0 0 0-3.36-1zm-12.71-65.85a4.17 4.17 0 1 0 5.67 1.61 4.17 4.17 0 0 0-5.67-1.61zm3.63 10.47a4 4 0 1 0 5.45 1.56 4 4 0 0 0-5.45-1.56zm-8.26-20.35a4.17 4.17 0 1 0 5.67 1.62 4.17 4.17 0 0 0-5.67-1.62zm-21.47 190.29a2.16 2.16 0 1 0-2.93-.84 2.16 2.16 0 0 0 2.93.84zm37.36-137a3.24 3.24 0 1 0 4.4 1.26 3.23 3.23 0 0 0-4.4-1.26zm-4.47-22.42a4.17 4.17 0 1 0 5.67 1.62 4.16 4.16 0 0 0-5.67-1.62zm2.84 11.55a3.09 3.09 0 1 0 4.2 1.2 3.09 3.09 0 0 0-4.2-1.2zm-22.91 130a1.85 1.85 0 1 0-2.52-.71 1.85 1.85 0 0 0 2.52.71zm6.83-12.15a2.31 2.31 0 1 0-4 2.25 2.31 2.31 0 0 0 4-2.25zm-13 21.11a1.85 1.85 0 1 0-2.51-.72 1.86 1.86 0 0 0 2.5.76zM574 294.85a2.93 2.93 0 1 0 1.14-4 2.95 2.95 0 0 0-1.14 4zm-44.7 108a2.16 2.16 0 1 0-2.93-.83 2.14 2.14 0 0 0 2.93.87zm-7.16 4.71a2 2 0 1 0-.78 2.72 2 2 0 0 0 .78-2.68zm50.61-102.18a2.78 2.78 0 1 0 1.08-3.77 2.78 2.78 0 0 0-1.08 3.81zm-347.3-51.48l-.51-.14-.14.5.5.14zm5.55-19.27a2.32 2.32 0 1 0-3.15-.9 2.32 2.32 0 0 0 3.15.9zm-5.37 9.53a1.85 1.85 0 1 0 .72-2.52 1.86 1.86 0 0 0-.7 2.52zm7.51-22.37l-.5-.14-.14.5.5.15zm4.16-9.17a1 1 0 0 0 .36-1.29.93.93 0 0 0-1.28-.36.94.94 0 1 0 .92 1.65zM242 203a1.39 1.39 0 1 0-1.89-.54 1.39 1.39 0 0 0 1.89.54zm4.77-10.86l-.28-.08-.07.28.27.07zm5.32-9.32H252v.09h.09zm13.37-16.55a1.39 1.39 0 1 0-1.89-.54 1.4 1.4 0 0 0 1.88.49zm-6.79 8.64a1.39 1.39 0 1 0-1.89-.54 1.39 1.39 0 0 0 1.88.49zm13.71-18.2l-.5-.15-.15.51.51.14zm33.5-28.13l-.39-.11-.11.39.39.11zm60.07-24.63a1.08 1.08 0 1 0-1.47-.42 1.08 1.08 0 0 0 1.46.37zm33.17-3.52a2 2 0 1 0-2.73-.77 2 2 0 0 0 2.72.72zm-22.25 1a.75.75 0 0 0 .28-1 .74.74 0 1 0-.28 1zm33.37-1a2 2 0 1 0-2.73-.77 2 2 0 0 0 2.72.72zm21 .41a.57.57 0 0 0 .23-.78.59.59 0 0 0-.79-.23.58.58 0 0 0 .56 1zM386 97.24a2.47 2.47 0 1 0 3.35 1 2.48 2.48 0 0 0-3.35-1zm-30.73 9a.55.55 0 0 0 .21-.73.54.54 0 0 0-.73-.2.53.53 0 0 0-.21.72.54.54 0 0 0 .71.24zm65.32-6.48a.88.88 0 0 0 .33-1.18.86.86 0 0 0-1.51.84.87.87 0 0 0 1.16.37zm21.26 2.24l-.27-.08-.07.27.27.08zm10.58 2.42h-.08v.1h.1zm21 6.86l-.37-.1-.1.36.36.11zm10.21 4.34l-.39-.11-.11.38.4.12zm9.18 4.83l-.11.36.36.1.11-.36zm9.69 5.6h-.17l-.06.18.19.06zm9.11 5.82l-.07.27.26.08.08-.28zm6.95 7.69a1.85 1.85 0 1 0 .72-2.52 1.86 1.86 0 0 0-.68 2.47zm10.89 7.44a1.85 1.85 0 1 0-2.51-.72 1.85 1.85 0 0 0 2.51.72zm8 7.72A1.85 1.85 0 1 0 535 154a1.86 1.86 0 0 0 2.49.74zm6.87 6.87l.1-.37-.36-.1-.1.37zm6.93 8l-.39-.11-.11.39.39.11zM347.22 451.92a3.55 3.55 0 1 0-1.38 4.82 3.55 3.55 0 0 0 1.38-4.82zm74 11.39a1.7 1.7 0 1 0-.66 2.31 1.7 1.7 0 0 0 .67-2.31zM227.75 360.08a3.86 3.86 0 1 0-5.24-1.5 3.86 3.86 0 0 0 5.24 1.5zm211.83 101.71a1.85 1.85 0 1 0 .72-2.51 1.85 1.85 0 0 0-.72 2.51zm13.5-3.65a1.22 1.22 0 0 0-1.68-.48 1.23 1.23 0 1 0 1.2 2.15 1.21 1.21 0 0 0 .48-1.67zM299.37 426a3.55 3.55 0 1 0-1.38 4.83 3.56 3.56 0 0 0 1.38-4.83zm17.92 12.27a3.39 3.39 0 1 0-1.32 4.62 3.42 3.42 0 0 0 1.32-4.64zm-9.29-5.88a3.4 3.4 0 1 0-1.32 4.62 3.4 3.4 0 0 0 1.32-4.62zm261.86-63.88a3.08 3.08 0 1 0-4.2-1.19 3.08 3.08 0 0 0 4.23 1.19zm.52-159.51a3.55 3.55 0 1 0 1.38-4.82 3.54 3.54 0 0 0-1.38 4.82zM537.1 411.87a2 2 0 1 0-2.72-.78 2 2 0 0 0 2.72.78zm-210.22 31.55a3.24 3.24 0 1 0-1.26 4.41 3.26 3.26 0 0 0 1.26-4.41zm9.88 4.63a3.24 3.24 0 1 0-1.26 4.41 3.25 3.25 0 0 0 1.26-4.41zm237.36-228.69a3.86 3.86 0 1 0 1.5-5.25 3.87 3.87 0 0 0-1.5 5.25zm-44.73 199.92a2 2 0 1 0-2.73-.78 2 2 0 0 0 2.73.78zm-48.67 29.54a2.47 2.47 0 1 0 1-3.36 2.47 2.47 0 0 0-1 3.36zM216.45 239.71a1.24 1.24 0 1 0-1.68-.48 1.24 1.24 0 0 0 1.68.48zM551.61 395.2a2 2 0 1 0-2.73-.78 2 2 0 0 0 2.73.78zm-141.77 71.29a2.16 2.16 0 1 0-2.94-.84 2.16 2.16 0 0 0 2.94.84zm-31.66-6a2.78 2.78 0 1 0-1.07 3.78 2.78 2.78 0 0 0 1.07-3.8zm-124.65-77.84a3.55 3.55 0 1 0-4.82-1.37 3.54 3.54 0 0 0 4.82 1.37zm6 9a3.24 3.24 0 1 0-4.41-1.26 3.26 3.26 0 0 0 4.44 1.26zM575 358.91a3.4 3.4 0 1 0-4.62-1.32 3.41 3.41 0 0 0 4.62 1.32zM400.39 463a2.93 2.93 0 1 0-1.14 4 2.95 2.95 0 0 0 1.14-4zm-10.82-1.15a3.09 3.09 0 1 0-1.2 4.2 3.09 3.09 0 0 0 1.2-4.18zm198.15-182.43a2.78 2.78 0 1 0 3.78 1.08 2.79 2.79 0 0 0-3.78-1.08zM579 349a3.39 3.39 0 1 0-4.62-1.31A3.39 3.39 0 0 0 579 349zm-57.44 74.8a1.7 1.7 0 1 0-.66 2.31 1.7 1.7 0 0 0 .66-2.31zm-164.41 31.89a3.08 3.08 0 1 0-1.2 4.2 3.1 3.1 0 0 0 1.2-4.2zm106.47 2.1a2.63 2.63 0 1 0-3.57-1 2.63 2.63 0 0 0 3.57 1zM211 250.47a2.77 2.77 0 1 0 1-3.77 2.77 2.77 0 0 0-1 3.77zm348.41 133.06a2.62 2.62 0 1 0-1 3.56 2.62 2.62 0 0 0 1-3.56zm28.08-115.2a2.93 2.93 0 1 0 4 1.13 2.93 2.93 0 0 0-4-1.13zM367.4 458.54a2.63 2.63 0 1 0-1 3.57 2.64 2.64 0 0 0 1-3.57zM214.28 322.12a3.55 3.55 0 1 0 4.82 1.38 3.54 3.54 0 0 0-4.82-1.38zm-5.09-32.69a3.86 3.86 0 1 0 5.24 1.5 3.85 3.85 0 0 0-5.24-1.5zm23.64 81.34a4.78 4.78 0 1 0-6.5-1.86 4.78 4.78 0 0 0 6.5 1.86zm4.94 9.88a4.79 4.79 0 1 0-6.5-1.86 4.79 4.79 0 0 0 6.5 1.86zM503.14 439a2 2 0 1 0-2.72-.78 2 2 0 0 0 2.72.78zm-294-160.42a3.71 3.71 0 1 0 5 1.44 3.71 3.71 0 0 0-5.03-1.41zm372 48a3.09 3.09 0 1 0 1.2-4.2 3.09 3.09 0 0 0-1.22 4.19zm.83-92a4.17 4.17 0 1 0 5.67 1.62 4.18 4.18 0 0 0-5.64-1.68zM208 272.61a3.55 3.55 0 1 0 1.38-4.82 3.54 3.54 0 0 0-1.38 4.82zM579.17 224a4.17 4.17 0 1 0 5.67 1.62 4.16 4.16 0 0 0-5.67-1.62zM474.85 450.74a2.47 2.47 0 1 0-1 3.36 2.48 2.48 0 0 0 1-3.36zM223.39 345.85a1.39 1.39 0 1 0-.54 1.88 1.38 1.38 0 0 0 .54-1.88zm360.47-30.24a2.78 2.78 0 1 0 1.08-3.78 2.79 2.79 0 0 0-1.08 3.78zm-310.19 93.54a4 4 0 1 0-5.45-1.56 4 4 0 0 0 5.45 1.56zm-60.93-104.31a1.22 1.22 0 0 0 .48-1.67 1.24 1.24 0 1 0-.48 1.67zm377.37-9.76a2.78 2.78 0 1 0-3.78-1.08 2.79 2.79 0 0 0 3.78 1.08zm-375.83 20.57a1.24 1.24 0 1 0-1.67-.48 1.22 1.22 0 0 0 1.67.48zm3.72 19.14a1.24 1.24 0 1 0 1.2 2.16 1.24 1.24 0 0 0-1.2-2.16zm347.29-143.3a4.17 4.17 0 1 0-5.67-1.62 4.17 4.17 0 0 0 5.7 1.62zM510 431.93a1.7 1.7 0 1 0 .65-2.31 1.7 1.7 0 0 0-.65 2.31zm54.62-54.1a2.62 2.62 0 1 0-3.57-1 2.63 2.63 0 0 0 3.52 1zM283 411.4a4 4 0 1 0-1.56 5.46 4 4 0 0 0 1.56-5.46zm261.49-8.12a1.54 1.54 0 1 0-2.1-.6 1.54 1.54 0 0 0 2.05.6zM557.88 179a.61.61 0 0 0 .24-.84.62.62 0 0 0-1.08.6.61.61 0 0 0 .84.24zm7.58 20.09a3.7 3.7 0 1 0 1.44-5 3.7 3.7 0 0 0-1.44 4.97zm-352 63.3a2.78 2.78 0 1 0-3.78-1.08 2.78 2.78 0 0 0 3.81 1.05zm217.89 202a1.7 1.7 0 0 0 .65-2.31 1.69 1.69 0 1 0-3 1.65 1.7 1.7 0 0 0 2.38.66zm-141.71-39.83a4.16 4.16 0 1 0-5.66-1.62 4.16 4.16 0 0 0 5.66 1.62zM267.59 396a3.4 3.4 0 1 0-1.32 4.62 3.4 3.4 0 0 0 1.32-4.62zm317.53-91a2.93 2.93 0 1 0 1.14-4 2.92 2.92 0 0 0-1.14 4zm.77-48.61a4 4 0 1 0 5.45 1.56 4 4 0 0 0-5.45-1.53zm-1.7-11.07a4.32 4.32 0 1 0 5.88 1.68 4.33 4.33 0 0 0-5.88-1.65zm-1.5 93.18a3.4 3.4 0 1 0-4.61-1.32 3.4 3.4 0 0 0 4.61 1.35zm-91.86 105.08a1.85 1.85 0 1 0 .72-2.52 1.84 1.84 0 0 0-.72 2.52zm-272-215.95l-.39-.11-.11.38.39.12zm3.08-10.19l-.38-.11-.12.39.39.11zm3.88-9.76a.45.45 0 0 0 .17-.62.45.45 0 0 0-.61-.17.44.44 0 0 0-.17.61.44.44 0 0 0 .6.18zm4.46-10.62l-.39-.11-.11.39.39.11zm4.94-9.88l-.39-.1-.11.38.39.12zm18.2-26.58a.53.53 0 1 0-.73-.21.53.53 0 0 0 .72.21zm7-8.94l-.27-.09-.08.28.27.07zm81-54.39h-.08v.1h.09zm39.54-8a3.55 3.55 0 1 0 1.38-4.82 3.56 3.56 0 0 0-1.48 4.79zm-29 5.37a.73.73 0 0 0 .29-1 .74.74 0 0 0-1-.29.75.75 0 0 0-.29 1 .73.73 0 0 0 .92.26zm10.81-2.77a.74.74 0 1 0-1-.29.75.75 0 0 0 .92.26zm11.26-.79a2.31 2.31 0 1 0-3.15-.89 2.32 2.32 0 0 0 3.15.89zm21-4.56l-.27-.08-.07.27.27.08zm22.07 0l-.38-.11-.12.39.4.11zm10.88.63l-.44-.13-.13.46.45.12zm10.73 1.53l-.39-.11-.11.39.39.11zM449 91.09h-.09v.09h.09zm10.8 2.78h-.09v.08h.09zm10.9 4.43a1.39 1.39 0 1 0-1.89-.54 1.39 1.39 0 0 0 1.93.54zm9.83 2.45l-.37-.11-.1.37.36.1zm9.71 4.79l.28.08.08-.28-.28-.07zm9.57 5.06l.4.11.11-.39-.39-.11zm9.48 4.91a.41.41 0 0 0-.16.56.42.42 0 0 0 .56.16.41.41 0 1 0-.4-.72zm9.55 6.54l-.39-.11-.11.39.38.11zm8.57 6.4h-.09v.09h.09zm8.55 6.91l-.5-.15-.14.51.5.14zm8 7.4l-.51-.14-.14.5.51.15zm7.34 8.55l.08-.28-.27-.07-.08.27zm7.3 8.09l-.37-.11-.1.36.36.11zM579.77 374a2.78 2.78 0 1 0-1.08 3.77 2.77 2.77 0 0 0 1.08-3.77zM430.68 474a2.62 2.62 0 1 0-1 3.56 2.62 2.62 0 0 0 1-3.56zm158-114.83a3.86 3.86 0 1 0-5.25-1.49 3.86 3.86 0 0 0 5.2 1.47zM602.76 295a3.39 3.39 0 1 0-4.62-1.32 3.39 3.39 0 0 0 4.62 1.32zm-28.55 88.61a2.77 2.77 0 1 0-1.08 3.77 2.77 2.77 0 0 0 1.08-3.77zm-72.07 70.53a2.16 2.16 0 1 0-2.94-.84 2.16 2.16 0 0 0 2.94.84zM596.21 315a2.78 2.78 0 1 0 1.08-3.77 2.78 2.78 0 0 0-1.08 3.77zm-43.51 97.52a1.7 1.7 0 1 0-2.31-.65 1.69 1.69 0 0 0 2.31.65zm6.72-8.58a1.24 1.24 0 1 0-1.68-.48 1.24 1.24 0 0 0 1.68.48zm8.33-11.15a2.62 2.62 0 1 0-1 3.56 2.62 2.62 0 0 0 1-3.56zM461.25 470a1.23 1.23 0 1 0-1.68-.48 1.23 1.23 0 0 0 1.68.48zm22.24-9.69a2.47 2.47 0 1 0-1 3.36 2.46 2.46 0 0 0 1-3.36zm112.82-215.87a4.47 4.47 0 1 0 6.09 1.74 4.48 4.48 0 0 0-6.09-1.74zM397.09 479.05a2.93 2.93 0 1 0-4-1.14 2.93 2.93 0 0 0 4 1.14zm194.79-131.2a2.93 2.93 0 1 0-4-1.14 2.93 2.93 0 0 0 4 1.14zM376.62 472.59a2.93 2.93 0 1 0-1.14 4 2.95 2.95 0 0 0 1.14-4zm95.85-7.73a1.69 1.69 0 1 0-3 1.65 1.69 1.69 0 1 0 3-1.65zm125.58-160.59a2.62 2.62 0 1 0 1-3.57 2.61 2.61 0 0 0-1 3.57zm1.72-26.27a3.4 3.4 0 1 0 4.62 1.32 3.4 3.4 0 0 0-4.62-1.32zm-11.49-64.77a3.86 3.86 0 1 0 5.24 1.5 3.85 3.85 0 0 0-5.24-1.55zm3.24 10.23a4.17 4.17 0 1 0 5.67 1.62 4.18 4.18 0 0 0-5.67-1.67zm7.56 43.18a3.86 3.86 0 1 0 5.25 1.5 3.87 3.87 0 0 0-5.25-1.55zm-4.7-32.66a4.32 4.32 0 1 0 5.88 1.67 4.31 4.31 0 0 0-5.88-1.72zm-207 240.2a2.93 2.93 0 1 0-1.13 4 2.93 2.93 0 0 0 1.17-4.05zM597.93 255a4.63 4.63 0 1 0 6.3 1.79 4.62 4.62 0 0 0-6.3-1.79zM333.34 464.81a3.24 3.24 0 1 0-4.41-1.26 3.25 3.25 0 0 0 4.41 1.26zm116.21 5.81a1.24 1.24 0 1 0 1.68.48 1.24 1.24 0 0 0-1.68-.48zm88.09-42.1a2.16 2.16 0 1 0-2.94-.84 2.17 2.17 0 0 0 2.94.84zm-223.07 22.77a2.93 2.93 0 1 0-1.14 4 2.94 2.94 0 0 0 1.14-4zm262.51-263.83a.86.86 0 1 0-1.18-.34.87.87 0 0 0 1.18.34zm-64.84 257.88a2.16 2.16 0 1 0-.84 2.94 2.16 2.16 0 0 0 .84-2.94zm-228.9-13.42a2.78 2.78 0 1 0 3.78 1.08 2.78 2.78 0 0 0-3.78-1.08zm11.87 12.17a3.55 3.55 0 1 0-4.83-1.38 3.56 3.56 0 0 0 4.83 1.38zm28.25 16.09a3.24 3.24 0 1 0-4.41-1.26 3.24 3.24 0 0 0 4.41 1.26zm241.89-291.63a.66.66 0 0 0 .26-.89.67.67 0 0 0-.9-.26.66.66 0 0 0 .64 1.15zm6.17 9.34a.86.86 0 1 0-1.17-.33.87.87 0 0 0 1.17.33zm22.28 148a3.24 3.24 0 1 0 1.26-4.41 3.25 3.25 0 0 0-1.26 4.39zm-2.51 10.65a2.93 2.93 0 1 0 1.14-4 2.93 2.93 0 0 0-1.14 3.98zM405.5 474.73a2 2 0 1 0 2.73.78 2 2 0 0 0-2.73-.78zm178.35-106a3.55 3.55 0 1 0-4.83-1.37 3.55 3.55 0 0 0 4.83 1.4zM579 198.06a3.24 3.24 0 1 0 1.26-4.4 3.24 3.24 0 0 0-1.26 4.4zM353.87 471.64a2.93 2.93 0 1 0-4-1.14 2.93 2.93 0 0 0 4 1.14zm167.07-32.1a1.7 1.7 0 1 0-.66 2.31 1.7 1.7 0 0 0 .66-2.31zm61.57-231.23a4.32 4.32 0 1 0 1.68-5.87 4.32 4.32 0 0 0-1.68 5.87zM419.9 475.13a2.47 2.47 0 1 0-1 3.36 2.48 2.48 0 0 0 1-3.36zm-74.54-10.86a3.55 3.55 0 1 0-1.37 4.82 3.54 3.54 0 0 0 1.37-4.82zm-40.05-18.85a2.93 2.93 0 1 0-1.14 4 2.93 2.93 0 0 0 1.14-4zm-25.43-19.89a3.86 3.86 0 1 0-1.5 5.24 3.86 3.86 0 0 0 1.5-5.24zm-6.7-8.39a5.56 5.56 0 1 0-2.18 7.56 5.55 5.55 0 0 0 2.18-7.56zm168.6 55.37a2.78 2.78 0 1 0-1.08 3.78 2.79 2.79 0 0 0 1.08-3.78zm-77.1 1.91a2.93 2.93 0 1 0-4-1.14 2.94 2.94 0 0 0 4 1.14zm181.52-56.25a2.16 2.16 0 1 0-.84 2.94 2.17 2.17 0 0 0 .84-2.94zm-15.81 14.44a2.62 2.62 0 1 0-1 3.57 2.63 2.63 0 0 0 1-3.57zm-41.32 25.7a2.63 2.63 0 1 0 1-3.57 2.63 2.63 0 0 0-1 3.57zm-239.95-59.7a4.32 4.32 0 1 0-5.87-1.68 4.32 4.32 0 0 0 5.87 1.68zm-5.26-7.87a5.56 5.56 0 1 0-7.56-2.16 5.56 5.56 0 0 0 7.56 2.16zm12.21 16.78a4.63 4.63 0 1 0-6.3-1.79 4.62 4.62 0 0 0 6.3 1.79zm-29.54-22.36a3.24 3.24 0 1 0-4.41-1.26 3.25 3.25 0 0 0 4.41 1.26zm-13.1-26a3.71 3.71 0 1 0 5 1.44 3.71 3.71 0 0 0-5-1.42zm-3.31-6.29a1.07 1.07 0 1 0 .41-1.45 1.07 1.07 0 0 0-.41 1.47zm-7.19-31.38a1.07 1.07 0 1 0-1.46-.41 1.06 1.06 0 0 0 1.46.43zM216.87 374a3.24 3.24 0 1 0 1.26-4.41 3.25 3.25 0 0 0-1.26 4.41zm46.6 42.37a5.25 5.25 0 1 0-7.14-2 5.25 5.25 0 0 0 7.14 2.03zm-60.69-88.67a4 4 0 1 0 5.46 1.56 4 4 0 0 0-5.46-1.53zm3.91 12.41a2 2 0 1 0 2.73.78 2 2 0 0 0-2.73-.75zM200.76 310l-.28-.08-.07.28.27.07zm-1.31-10.85l.08-.27-.28-.07-.07.27zm-1.74-48.73a5.56 5.56 0 1 0 7.56 2.16 5.57 5.57 0 0 0-7.56-2.14zM195.32 279a3.7 3.7 0 1 0 1.44-5 3.7 3.7 0 0 0-1.44 5zm5.42 8a2.32 2.32 0 1 0-.9 3.15 2.32 2.32 0 0 0 .9-3.1zm-2.58-40.69a4.17 4.17 0 1 0 1.62-5.66 4.15 4.15 0 0 0-1.62 5.71zm9.64-22.09a1.23 1.23 0 1 0-1.68-.48 1.23 1.23 0 0 0 1.68.53zm-2.71 11.06a1.7 1.7 0 1 0-2.3-.66 1.7 1.7 0 0 0 2.3.71zm-7.79 27.29a4.17 4.17 0 1 0 5.67 1.61 4.15 4.15 0 0 0-5.67-1.56zm13.34-49.85l-.27-.07-.08.27.27.08zm3.78-10.24h-.09v.09h.09zm4.7-10.1l-.38-.11-.12.39.39.11zM348.4 82.14h-.09v.1h.09zm10.49-2.78h-.09v.09h.08zm10.81-2.16h-.1v.09h.09zm11.52-.2a1.39 1.39 0 0 0-1.36-2.43 1.39 1.39 0 1 0 1.36 2.43zm10.2-2.55h-.18l-.05.18h.18zm65 5.84h-.09v.09h.09zm10.72 2.82l-.24-.11-.08.27.28.08zm10.5 3.4l-.27-.07-.08.27.27.08zm9.05 4.61a1.07 1.07 0 1 0 .41-1.46 1.06 1.06 0 0 0-.38 1.46zm10.9 4h-.19v.18l.18.06zm9.84 5l-.4-.12-.11.39.39.11zm9.06 6l.27.08.09-.27-.27-.07zm9.43 5.71l-.37-.11-.1.36.36.11zm17 13.53l-.18-.06v.19h.18zm8.15 7.43l-.27-.08-.08.28.28.08zm7.72 8l-.28-.08-.07.27.27.08zm13.66 16.92h-.09v.09h.09zm6.72 9.54a.65.65 0 1 0-.89-.25.65.65 0 0 0 .96.31zm5.85 8.49l-.51-.15-.14.51.5.14zm10.35 31.44a4 4 0 1 0 1.56-5.46 4 4 0 0 0-1.49 5.52zm5.42 4.77a4.32 4.32 0 1 0 5.88 1.68 4.34 4.34 0 0 0-5.81-1.63zM492.09 470a2.78 2.78 0 1 0-1.07 3.78 2.77 2.77 0 0 0 1.07-3.78zm98.73-282.91a2 2 0 1 0-2.73-.78 2 2 0 0 0 2.73.82zm2.09 4.75a3.86 3.86 0 1 0 5.24 1.5 3.86 3.86 0 0 0-5.24-1.46zM520 454.67a1.69 1.69 0 1 0-.65 2.31 1.69 1.69 0 0 0 .65-2.31zm47.87-41.78a.9.9 0 1 0-1.23-.35.91.91 0 0 0 1.24.35zm-7.23 8.64a1.23 1.23 0 1 0-1.2-2.15 1.23 1.23 0 1 0 1.2 2.15zM501 468.9a2.63 2.63 0 1 0-3.57-1 2.62 2.62 0 0 0 3.57 1zm-64.91 15.17a2.63 2.63 0 1 0 3.57 1 2.63 2.63 0 0 0-3.59-1zm167.8-261.59a4.17 4.17 0 1 0 5.67 1.62 4.17 4.17 0 0 0-5.69-1.62zm-156.8 260.57a1.85 1.85 0 1 0 2.52.72 1.86 1.86 0 0 0-2.52-.72zm13.06-1.91a1.54 1.54 0 1 0-.6 2.1 1.56 1.56 0 0 0 .6-2.1zm10.74-3.14a2 2 0 1 0-.78 2.73 2 2 0 0 0 .78-2.73zm11-3.92a2.78 2.78 0 1 0-1.08 3.77 2.77 2.77 0 0 0 1.1-3.79zm128.48-170.66a2.47 2.47 0 1 0 1-3.36 2.48 2.48 0 0 0-1 3.36zm-27.53 89.52a2.94 2.94 0 1 0-1.14 4 2.94 2.94 0 0 0 1.14-4zm26.82-79.24a1.7 1.7 0 1 0 .66-2.31 1.7 1.7 0 0 0-.66 2.31zm1.63-37.7a4.78 4.78 0 1 0 6.5 1.86 4.79 4.79 0 0 0-6.5-1.86zm-3.35 45.7a2.47 2.47 0 1 0 3.35 1 2.47 2.47 0 0 0-3.35-1.03zm8.48-32.21a3.39 3.39 0 1 0-1.31 4.62 3.39 3.39 0 0 0 1.31-4.65zm-40.86 112.78a1.85 1.85 0 0 0-3.24 1.8 1.85 1.85 0 0 0 3.24-1.8zm17.77-23.11a4.32 4.32 0 1 0-5.88-1.68 4.32 4.32 0 0 0 5.88 1.68zm4.78-9.61a4.63 4.63 0 1 0-6.3-1.8 4.63 4.63 0 0 0 6.3 1.8zM606.5 233a4.47 4.47 0 1 0 6.09 1.74 4.48 4.48 0 0 0-6.09-1.74zm-1.42 114.5a3.08 3.08 0 1 0-4.2-1.2 3.1 3.1 0 0 0 4.2 1.22zm-2.8 6.22a2.93 2.93 0 1 0-1.13 4 2.92 2.92 0 0 0 1.13-3.98zm-73 94.61a2 2 0 1 0-.78 2.72 2 2 0 0 0 .74-2.7zm9.49-6.79a2.63 2.63 0 1 0-1 3.57 2.64 2.64 0 0 0 .96-3.55zM552 427.09a1.24 1.24 0 1 0 1.68.48 1.24 1.24 0 0 0-1.68-.48zm36-38.36a4.32 4.32 0 1 0-5.87-1.68 4.31 4.31 0 0 0 5.95 1.68zm23-123.57a4.79 4.79 0 1 0 6.51 1.86 4.79 4.79 0 0 0-6.51-1.86zm-67.13 169.07a1.54 1.54 0 1 0 2.09.6 1.54 1.54 0 0 0-2.09-.6zm64.79-190.41a4.48 4.48 0 1 0 6.09 1.74 4.48 4.48 0 0 0-6.09-1.74zm-356.26 185a5.86 5.86 0 1 0 2.27-8 2.56 2.56 0 0 0-.35.22 5.24 5.24 0 1 0-1.66 1.46c.09-.05.15-.11.23-.16a5.86 5.86 0 0 0-.49 6.52zm357.65-174.5a4.78 4.78 0 1 0 6.51 1.86 4.78 4.78 0 0 0-6.51-1.82zm-185.4 230.76a3.24 3.24 0 1 0 4.41 1.25 3.23 3.23 0 0 0-4.41-1.25zM604 335.83a3.09 3.09 0 1 0 1.2-4.2 3.08 3.08 0 0 0-1.2 4.2zm-93 124.78a1.85 1.85 0 1 0-3.23 1.8 1.85 1.85 0 1 0 3.23-1.8zm-209.49 1.5a2.63 2.63 0 1 0-3.57-1 2.63 2.63 0 0 0 3.61 1zm-21.21-17.44a3.55 3.55 0 1 0 4.83 1.38 3.56 3.56 0 0 0-4.79-1.38zm-5.2-.58a3.55 3.55 0 1 0-4.82-1.38 3.55 3.55 0 0 0 4.86 1.38zm95.18 39.13a3.24 3.24 0 1 0 4.41 1.26 3.26 3.26 0 0 0-4.37-1.26zm26 3.65a3.09 3.09 0 1 0-1.2 4.2 3.09 3.09 0 0 0 1.28-4.2zm-54.84-6.28a2.93 2.93 0 1 0-4-1.14 2.92 2.92 0 0 0 4.08 1.14zm42.38 9.28a2.78 2.78 0 1 0-3.78-1.08 2.76 2.76 0 0 0 3.86 1.08zm19.44-3.33a2.63 2.63 0 1 0 3.57 1 2.62 2.62 0 0 0-3.49-1zm13.81 5.09a3.55 3.55 0 1 0-4.83-1.38 3.56 3.56 0 0 0 4.91 1.38zm-127.71-40.22a3.08 3.08 0 1 0 4.2 1.19 3.08 3.08 0 0 0-4.2-1.19zm21.91 16.21a2.93 2.93 0 1 0-4-1.13 2.92 2.92 0 0 0 4 1.13zm-44.08-30.38a4 4 0 1 0-5.46-1.56 4 4 0 0 0 5.46 1.56zm51.26 30.47a2.63 2.63 0 1 0 3.57 1 2.63 2.63 0 0 0-3.57-1zm14 5a3.09 3.09 0 1 0-1.2 4.2 3.09 3.09 0 0 0 1.21-4.24zm20.41 7.25a2.78 2.78 0 1 0-1.08 3.78 2.79 2.79 0 0 0 1.09-3.82zm6.95 1.68a2.63 2.63 0 1 0 3.56 1 2.62 2.62 0 0 0-3.55-1.04zm-150-101.78a1.52 1.52 0 0 0 .6-2.09 1.54 1.54 0 1 0-.6 2.09zm35.08 33.32a4.17 4.17 0 1 0-5.66-1.62 4.17 4.17 0 0 0 5.65 1.58zm-37.47-46.27a3.24 3.24 0 1 0-1.26 4.4 3.24 3.24 0 0 0 1.25-4.44zm30.47 36.26a2.78 2.78 0 1 0-3.78-1.08 2.79 2.79 0 0 0 3.77 1.04zM215 389.93a2.16 2.16 0 1 0-2.93-.84 2.16 2.16 0 0 0 2.93.84zm17.34 5a3.85 3.85 0 1 0-5.24-1.5 3.84 3.84 0 0 0 5.28 1.57zm-33-42.19a5.56 5.56 0 1 0-7.55-2.16 5.56 5.56 0 0 0 7.61 2.19zm1.68 7a1.7 1.7 0 1 0-2.31-.66 1.7 1.7 0 0 0 2.37.66zm-9.57-32.59a.45.45 0 1 0-.61-.17.45.45 0 0 0 .67.17zm1.29 8.66a2 2 0 1 0 2.73.78 2 2 0 0 0-2.67-.78zm-3.42-19.51l.11-.39-.39-.11-.11.39zm-1.76-11.3l-.11.39.39.11.11-.39zm-.38-10.72l-.27-.08-.08.27.27.08zm-.85-11.2l-.12.39.39.11.11-.39zm4.26-12.82a4.48 4.48 0 1 0-1.74 6.08 4.48 4.48 0 0 0 1.74-6.08zm-5.54-13.1a4.94 4.94 0 1 0 6.71 1.91 4.92 4.92 0 0 0-6.71-1.91zm7.65-13.27a4.78 4.78 0 1 0-6.5-1.86 4.78 4.78 0 0 0 6.5 1.86zm-1.32 11.63a5.56 5.56 0 1 0-7.55-2.15 5.55 5.55 0 0 0 7.55 2.15zm2.66-24a2.78 2.78 0 1 0-3.78-1.08 2.78 2.78 0 0 0 3.74 1.05zm3.09-10.5a2.78 2.78 0 1 0-3.78-1.08 2.79 2.79 0 0 0 3.78 1.06zm2.09-12.84l-.28-.08-.07.27.27.07zM453.28 66.76l-.27-.08-.08.28.27.07zm10.81 2.78l-.28-.08-.07.27.27.08zm10.49 3.08l-.27-.07-.08.27.28.07zm10 3.66h-.1v.09h.09zm10.18 4.32h-.09v.09h.09zm19.67 9.54v.09h.09v-.09zm51.45 40.49h-.18v.18l.18.05zm20.81 25.65l-.28-.08-.08.28.27.08zm6.05 9.65a.59.59 0 0 0 .23-.79.58.58 0 0 0-.78-.22.57.57 0 0 0-.23.78.58.58 0 0 0 .74.23zm5.56 9.26a.57.57 0 0 0 .22-.78.57.57 0 0 0-.78-.23.57.57 0 0 0-.22.78.57.57 0 0 0 .74.23zm5.21 9.21l-.4-.1-.11.39.39.11zm4.46 9.92l-.5-.15-.15.51.51.14zM350.74 492.11a2.47 2.47 0 1 0-.95 3.36 2.46 2.46 0 0 0 .95-3.36zM340.25 489a2.47 2.47 0 1 0-1 3.36 2.47 2.47 0 0 0 1-3.36zm243-77a1 1 0 0 0-1.8 1 1 1 0 1 0 1.8-1zm7.1-9.45a1.85 1.85 0 0 0-3.24 1.8 1.85 1.85 0 0 0 3.24-1.8zm-274.06 77.51a2.62 2.62 0 1 0 3.56 1 2.62 2.62 0 0 0-3.56-1zm44.22 18.17a2.62 2.62 0 1 0-3.56-1 2.62 2.62 0 0 0 3.56 1zm-34.26-14.14a2.78 2.78 0 1 0 3.78 1.08 2.78 2.78 0 0 0-3.78-1.08zm241.54-55.76a1.24 1.24 0 0 0 1.2 2.16 1.24 1.24 0 1 0-1.2-2.16zm8.3-6.26a1 1 0 1 0-1-1.79 1 1 0 0 0-.4 1.39 1 1 0 0 0 1.4.4zM368 499a2.16 2.16 0 1 0 .84-2.94A2.17 2.17 0 0 0 368 499zm255.41-223.94a4.94 4.94 0 1 0 6.71 1.92 4.93 4.93 0 0 0-6.71-1.92zm-8.53 82.63a3.24 3.24 0 1 0-4.41-1.26 3.26 3.26 0 0 0 4.41 1.26zm7.34-47.69a2.63 2.63 0 1 0 3.56 1 2.62 2.62 0 0 0-3.56-1zm.88-45.7a4.94 4.94 0 1 0 6.71 1.92 4.93 4.93 0 0 0-6.71-1.96zm.15 22.18a4.63 4.63 0 1 0 6.29 1.8 4.64 4.64 0 0 0-6.29-1.84zm-2.71 17.34a4.79 4.79 0 1 0 1.86-6.51 4.8 4.8 0 0 0-1.86 6.47zm-3.89 31.66a3.24 3.24 0 1 0 1.25-4.48 3.24 3.24 0 0 0-1.25 4.44zm2.44-11a3.09 3.09 0 1 0 1.2-4.2 3.09 3.09 0 0 0-1.2 4.13zM528.6 463.86a2.16 2.16 0 1 0-.84 2.94 2.16 2.16 0 0 0 .84-2.94zm-18.81 11a2 2 0 1 0-.78 2.73 2 2 0 0 0 .78-2.7zm9.57-5.24a2 2 0 1 0-.78 2.72 2 2 0 0 0 .78-2.69zm-212.8 6.05a2.31 2.31 0 1 0 3.15.9 2.31 2.31 0 0 0-3.15-.87zm252.49-37.36a1.85 1.85 0 1 0 .72-2.52 1.85 1.85 0 0 0-.72 2.55zm-147 60.26a2.78 2.78 0 1 0 3.78 1.08 2.77 2.77 0 0 0-3.76-1.05zM602.2 389.25a5.09 5.09 0 1 0-6.93-2 5.09 5.09 0 0 0 6.93 2zm11.27-26.53a4.78 4.78 0 1 0-1.86 6.51 4.78 4.78 0 0 0 1.86-6.51zm-4.07 9.81a5.24 5.24 0 1 0-2 7.13 5.24 5.24 0 0 0 2-7.13zm4.47-26.6a3.24 3.24 0 1 0 1.25-4.4 3.23 3.23 0 0 0-1.25 4.4zm-134.35 142a2.16 2.16 0 1 0-.84 2.94 2.17 2.17 0 0 0 .84-2.93zM469 491.25a2 2 0 1 0-.78 2.73 2 2 0 0 0 .78-2.73zM455 496a2 2 0 1 0 .77-2.73A2 2 0 0 0 455 496zm83.36-38.59a2.78 2.78 0 1 0-1.08 3.77 2.77 2.77 0 0 0 1.12-3.79zm-38.24 22.37a2.47 2.47 0 1 0-1 3.36 2.48 2.48 0 0 0 1.04-3.38zm-200-8.33a2.47 2.47 0 1 0-1 3.36 2.47 2.47 0 0 0 1-3.38zM620.5 229.13a4.32 4.32 0 1 0-5.88-1.68 4.33 4.33 0 0 0 5.88 1.68zM490.57 483.85a2.62 2.62 0 1 0-1 3.57 2.62 2.62 0 0 0 1-3.57zm121.58-278.64a.78.78 0 0 0 .3-1.06.78.78 0 1 0-.3 1.06zm-58.3 241.25a1.85 1.85 0 0 0-1.8-3.24 1.85 1.85 0 0 0 1.8 3.24zM616 216a1.08 1.08 0 1 0-1.47-.42 1.08 1.08 0 0 0 1.47.42zm-19 182.84a4.94 4.94 0 1 0-6.72-1.92 4.93 4.93 0 0 0 6.72 1.92zm-51.29 55.24a2.62 2.62 0 1 0-3.57-1 2.62 2.62 0 0 0 3.6 1zm73.34-221.7a4.32 4.32 0 1 0 5.87 1.68 4.32 4.32 0 0 0-5.84-1.68zm3.11 21.62a4.32 4.32 0 1 0 5.88 1.68 4.33 4.33 0 0 0-5.88-1.68zm-1.23-11.11a4.32 4.32 0 1 0 5.88 1.68 4.32 4.32 0 0 0-5.88-1.69zM379.65 497.6a2.16 2.16 0 1 0 2.93.83 2.14 2.14 0 0 0-2.93-.83zm21.23.44a3.24 3.24 0 1 0 4.41 1.26 3.25 3.25 0 0 0-4.41-1.3zm22.07-.35a2.93 2.93 0 1 0 4 1.14 2.95 2.95 0 0 0-3.95-1.14zm22.05-2.28a2 2 0 1 0 2.73.78 2 2 0 0 0-2.73-.78zm-11.25 1a2.93 2.93 0 1 0 4 1.14 2.92 2.92 0 0 0-3.99-1.09zm-43 2.91a1.53 1.53 0 0 0-.6 2.1 1.54 1.54 0 1 0 .6-2.1zm-102-32.54l-.27-.07-.08.27.27.08zm-10.05-7.28a1.54 1.54 0 1 0 2.1.6 1.55 1.55 0 0 0-2.11-.55zm-44.07-45.3a2.93 2.93 0 1 0-1.14 4 2.93 2.93 0 0 0 1.13-3.95zm-39.43-37.33a2.93 2.93 0 1 0-4-1.14 2.95 2.95 0 0 0 4 1.14zm8.82 18.4a1.38 1.38 0 0 0 .54-1.88 1.39 1.39 0 0 0-2.43 1.35 1.38 1.38 0 0 0 1.87.53zM274.26 452a4.32 4.32 0 1 0-1.67 5.88 4.32 4.32 0 0 0 1.67-5.88zM249 436.79a5.09 5.09 0 1 0-6.93-2 5.09 5.09 0 0 0 6.93 2zm9.13.86a4.63 4.63 0 1 0-1.79 6.3 4.62 4.62 0 0 0 1.83-6.3zm-15.64-15.52a3.86 3.86 0 1 0-1.5 5.25 3.87 3.87 0 0 0 1.54-5.25zm-24.1-27a2.63 2.63 0 1 0 3.57 1 2.63 2.63 0 0 0-3.53-.97zm-19.35-9.45a1.39 1.39 0 1 0-1.35-2.43 1.39 1.39 0 0 0 1.35 2.43zm65.17 65.38a4.32 4.32 0 1 0-5.88-1.68 4.32 4.32 0 0 0 5.92 1.71zm-37.47-42.33a2.16 2.16 0 1 0-2.94-.84 2.16 2.16 0 0 0 2.98.87zm-36.82-44l.11-.37-.36-.1-.1.36zm-2-24a5.86 5.86 0 1 0-2.28 8 5.87 5.87 0 0 0 2.3-7.99zm-.15 12a2.16 2.16 0 1 0-.84 2.94 2.16 2.16 0 0 0 .86-2.95zm-9.61-30.28a.42.42 0 0 0 .16-.56.41.41 0 1 0-.16.56zm-.57 11.69a2.78 2.78 0 1 0 1.08-3.78 2.77 2.77 0 0 0-1.06 3.77zm-1-22.83l-.45-.13-.13.45.45.13zm-1.31-11.13l-.39-.11-.11.39.39.11zm-1-21.69h-.1v.09h.09zm2.08-11.89a2.16 2.16 0 1 0-.84 2.94 2.16 2.16 0 0 0 .85-2.95zm4.16-28.68a3.24 3.24 0 1 0-4.41-1.26 3.24 3.24 0 0 0 4.42 1.25zm-.95 12.42a5.09 5.09 0 1 0-6.93-2 5.08 5.08 0 0 0 6.94 1.99zM185 215a1.24 1.24 0 1 0-1.68-.48 1.24 1.24 0 0 0 1.68.48zm-10.6 39.64a2.16 2.16 0 1 0 2.93.83 2.15 2.15 0 0 0-2.97-.82zm7.74-29.16a1.39 1.39 0 1 0-1.89-.54 1.39 1.39 0 0 0 1.85.55zm6-22l-.27-.07-.08.27.27.08zM460.46 56.21h-.1v.1h.09zm10.8 2.79h-.09v.1h.08zm10.19 3.09h-.09v.09h.1zm10.4 4v.1h.09v-.09zm10 4.35h-.09v.09h.09zm78.84 58.06l-.18-.05-.05.18.18.05zm6.79 8.65l-.18-.05v.18l.18.05zm7 8.69l-.36-.1-.11.37.37.09zM606.21 164l-.37-.11-.1.37.36.1zm5.32 9.51h-.18l-.05.18.18.06zm4.74 9.91l-.27-.08-.07.27.27.08zm4.83 10.65a.78.78 0 1 0-.76-1.37.78.78 0 0 0 .76 1.37zm3.52 9.72l-.28-.08-.08.28.27.07zm3.69 10.21l-.27-.08-.07.28.27.07zm3.39 100.1a5.09 5.09 0 1 0 2-6.92 5.08 5.08 0 0 0-2 6.93zm.78 28.14a3.4 3.4 0 1 0-1.32 4.61 3.4 3.4 0 0 0 1.32-4.6zm2.76-10.73a3.55 3.55 0 1 0-1.38 4.83 3.55 3.55 0 0 0 1.38-4.82zm-5.4-6.6a5.1 5.1 0 1 0 2-6.93 5.09 5.09 0 0 0-2 6.94zm-1.23-99.06a2.62 2.62 0 1 0 1-3.57 2.62 2.62 0 0 0-1 3.58zm.47 126.88a3.39 3.39 0 1 0-1.32 4.62 3.4 3.4 0 0 0 1.32-4.61zm3.25-49.51a5.25 5.25 0 1 0 2-7.14 5.25 5.25 0 0 0-2 7.15zm7.83-9.06a5.09 5.09 0 1 0-6.92-2 5.09 5.09 0 0 0 6.92 2.01zm-13.67 68.31a4.32 4.32 0 1 0-1.67 5.88 4.32 4.32 0 0 0 1.67-5.87zm-5.62 16.85a5.4 5.4 0 1 0-7.35-2.09 5.41 5.41 0 0 0 7.35 2.1zm12.33-136.77a4.17 4.17 0 1 0 5.66 1.62 4.16 4.16 0 0 0-5.66-1.62zm1.24 10.26a4.79 4.79 0 1 0 6.51 1.86 4.78 4.78 0 0 0-6.51-1.86zm.7 10.83a4.94 4.94 0 1 0 6.71 1.92 4.93 4.93 0 0 0-6.71-1.92zm-3.58-31.37a3.4 3.4 0 1 0 4.62 1.31 3.38 3.38 0 0 0-4.62-1.31zm3.66 42.19a5.09 5.09 0 1 0 6.92 2 5.09 5.09 0 0 0-6.92-2zM359.08 506.93a2.47 2.47 0 1 0-1 3.36 2.46 2.46 0 0 0 1-3.36zm178.67-34.26a3.09 3.09 0 1 0-1.2 4.2 3.09 3.09 0 0 0 1.2-4.2zm-9.52 5.94a2.62 2.62 0 1 0-1 3.56 2.61 2.61 0 0 0 1-3.56zm-221.78 11a1.24 1.24 0 1 0-.48 1.68 1.24 1.24 0 0 0 .48-1.67zm149.11 18a.74.74 0 0 0-1-.28.73.73 0 0 0-.29 1 .75.75 0 0 0 1 .29.76.76 0 0 0 .29-1.04zm-159-22.9a1.24 1.24 0 1 0-.48 1.68 1.24 1.24 0 0 0 .49-1.71zm301.32-72.31a1.08 1.08 0 1 0-.42 1.47 1.09 1.09 0 0 0 .43-1.5zm-6.49 8.95a1.08 1.08 0 1 0-.42 1.47 1.08 1.08 0 0 0 .43-1.5zM399.85 512a1.24 1.24 0 1 0 1.68.48 1.23 1.23 0 0 0-1.68-.48zm-51.28-7.76a2.63 2.63 0 1 0-1 3.57 2.64 2.64 0 0 0 1-3.58zm83.48 5.15a2.63 2.63 0 1 0 3.57 1 2.62 2.62 0 0 0-3.57-1.01zm-53.55 1.9a.54.54 0 0 0 .52.94.54.54 0 0 0-.52-.94zm88.14-4a2.16 2.16 0 1 0-2.94-.84 2.15 2.15 0 0 0 2.94.79zm10.36-3.1a1.85 1.85 0 1 0-2.51-.72 1.85 1.85 0 0 0 2.51.72zm98.91-66.89a1.39 1.39 0 1 0 1.89.54 1.39 1.39 0 0 0-1.91-.54zm-132.75 71.08a2 2 0 1 0 2.73.78 2 2 0 0 0-2.73-.78zm-77-1.35a3.55 3.55 0 1 0 4.83 1.38 3.56 3.56 0 0 0-4.83-1.41zm-99-40.71a1.39 1.39 0 1 0 1.89.54 1.39 1.39 0 0 0-1.86-.54zm143.12 44.88a2.31 2.31 0 1 0 3.15.9 2.32 2.32 0 0 0-3.15-.9zm136.42-45a3.09 3.09 0 1 0-1.2 4.2 3.09 3.09 0 0 0 1.2-4.21zm-270 7.14a.64.64 0 0 0-.25.89.66.66 0 0 0 .89.26.67.67 0 0 0 .26-.9.66.66 0 0 0-.91-.26zm211.49 24.72a2 2 0 1 0-.78 2.73 2 2 0 0 0 .77-2.74zm-174.13-5.36a2.47 2.47 0 1 0 3.36 1 2.48 2.48 0 0 0-3.37-1.01zm203.59-5a2.62 2.62 0 1 0-3.56-1 2.62 2.62 0 0 0 3.55 1.03zM568 445.06a1.68 1.68 0 0 0-.66 2.31 1.69 1.69 0 1 0 3-1.65 1.68 1.68 0 0 0-2.34-.66zm16.16-13.94a1.08 1.08 0 1 0-1.47-.42 1.07 1.07 0 0 0 1.5.42zm-256.55 66.47a2.31 2.31 0 1 0-.89 3.15 2.32 2.32 0 0 0 .89-3.15zm170.74-3.79a2.16 2.16 0 1 0-.84 2.94 2.18 2.18 0 0 0 .84-2.94zM388.9 511.41a1.53 1.53 0 0 0-.6 2.1 1.54 1.54 0 1 0 .6-2.1zm216.32-104.12a4 4 0 1 0-5.46-1.55 4 4 0 0 0 5.46 1.55zm-44.91 45.18a1.69 1.69 0 1 0 1.65 3 1.69 1.69 0 1 0-1.65-3zM421.17 510.6a2.47 2.47 0 1 0 3.36 1 2.48 2.48 0 0 0-3.36-1zm-83.1-9.46a2.63 2.63 0 1 0-1 3.57 2.63 2.63 0 0 0 1-3.57zm-51.22-21.69a.67.67 0 0 0-.9-.26.66.66 0 0 0-.25.89.66.66 0 1 0 1.15-.63zM610.7 398a4.17 4.17 0 1 0-5.67-1.62 4.17 4.17 0 0 0 5.67 1.62zm5.54-8.8a5.4 5.4 0 1 0-7.35-2.09 5.4 5.4 0 0 0 7.35 2.1zm-64.72 69.55a2.63 2.63 0 1 0 3.57 1 2.62 2.62 0 0 0-3.57-.99zm-43 30.49a2.31 2.31 0 1 0-.9 3.15 2.3 2.3 0 0 0 .89-3.14zm-249.45-28.15l.5.14.14-.5-.5-.14zm-43.17-47a1.7 1.7 0 1 0-2.31-.66 1.7 1.7 0 0 0 2.31.64zm29.27 30.81a2.47 2.47 0 1 0-1 3.36 2.47 2.47 0 0 0 1-3.38zm-21.61-24.7a2.47 2.47 0 1 0-1 3.36 2.47 2.47 0 0 0 1-3.38zM253 452.67a2 2 0 1 0-.78 2.73 2 2 0 0 0 .78-2.73zm-23.86-21a1.85 1.85 0 1 0-2.51-.72 1.83 1.83 0 0 0 2.46.69zm-20.71-27.37a1.08 1.08 0 1 0-.42-1.47 1.07 1.07 0 0 0 .37 1.44zm-15.76-4.75a.46.46 0 0 0-.18.62.45.45 0 0 0 .62.17.44.44 0 0 0 .17-.61.45.45 0 0 0-.66-.21zm-10.89-21.65a2.77 2.77 0 1 0 3.77 1.08 2.77 2.77 0 0 0-3.77-1.08zm51.86 58a2.78 2.78 0 1 0 3.77 1.07 2.77 2.77 0 0 0-3.77-1.03zM188 390.12a.47.47 0 0 0-.62-.17.46.46 0 0 0-.18.62.46.46 0 0 0 .62.17.46.46 0 0 0 .18-.62zm-8.82-19.52l.1-.36-.37-.1-.1.36zM167.35 336a3.55 3.55 0 1 0 4.83 1.38 3.56 3.56 0 0 0-4.83-1.38zm7.38 23.69a.5.5 0 0 0-.19.67.49.49 0 0 0 .67.19.49.49 0 0 0 .2-.67.51.51 0 0 0-.68-.18zm-3.85-11.85a2 2 0 1 0 2.73.78 2 2 0 0 0-2.73-.77zm-3.53-18.08a1.85 1.85 0 0 0-1.8-3.24 1.85 1.85 0 0 0 1.8 3.24zm-3.85-23l.14-.44-.46-.14-.12.45zm-1.37-32.91l.39.11.11-.39-.39-.11zm0-20.87a2 2 0 1 0 .77-2.73 2 2 0 0 0-.82 2.75zm3.56-11.32a.49.49 0 1 0-.47-.86.49.49 0 1 0 .47.86zm7.72-32a.69.69 0 0 0 .27-1 .71.71 0 0 0-.95-.27.7.7 0 1 0 .68 1.22zM164 265.18a2.47 2.47 0 1 0-3.36-1 2.48 2.48 0 0 0 3.36 1zm6.73-44.32a1.39 1.39 0 1 0-1.89-.54 1.4 1.4 0 0 0 1.84.54zm-3 10a.62.62 0 1 0-.6-1.08.62.62 0 1 0 .6 1.08zM424.64 38h-.08v.09h.09zm43.23 7.41h-.09v.09h.1zm20.93 6.45l-.06.18.18.05.06-.18zm10.49 4.63a.65.65 0 0 0 .25-.89.66.66 0 0 0-.89-.26.66.66 0 1 0 .64 1.15zm9.87 3.79l-.27-.08-.08.27.27.08zm9.76 4.6h-.18l-.06.18h.19zm61.43 45.38l-.18-.05v.18h.18zm7.36 8.2v-.18h-.18l-.05.18zm7.26 8.18l-.27-.07-.07.27.27.07zm6.92 8.67l-.37-.1-.1.37.36.1zm6.24 8.91l-.18-.06-.05.19.18.05zm16.56 28.37h-.09v.08h.09zm4.86 9.93l-.27-.08-.08.28.27.07zm4 10.19l-.27-.08-.08.28.27.07zm3.81 10.21l-.36-.1-.1.36.36.1zm3.44 10.2l-.39-.11-.11.39.38.11zm2.61 10.53l-.5-.15-.15.5.51.15zm1.93 10.66l-.11.38.39.12.11-.39zm.46 11.93a2 2 0 1 0 .78-2.73 2 2 0 0 0-.76 2.73zm1.73 17a4.48 4.48 0 1 0 6.09 1.74 4.49 4.49 0 0 0-6.07-1.71zm-.14 21.11a5.4 5.4 0 1 0 7.35 2.1 5.41 5.41 0 0 0-7.33-2.07zm.38-10.55a4.94 4.94 0 1 0 6.72 1.91 4.93 4.93 0 0 0-6.7-1.88zm3.26-13.29a4.94 4.94 0 1 0-6.72-1.91 4.94 4.94 0 0 0 6.74 1.94zm-15.29 111.62a4.48 4.48 0 1 0-1.74 6.09 4.48 4.48 0 0 0 1.74-6.09zM464.51 518a1.23 1.23 0 1 0-.48 1.67 1.24 1.24 0 0 0 .48-1.67zm21-4.23a1.54 1.54 0 1 0-2.1-.6 1.55 1.55 0 0 0 2.07.63zm10.26-4a1.39 1.39 0 1 0-1.35-2.42 1.39 1.39 0 1 0 1.35 2.42zm135.38-127.61a4.17 4.17 0 1 0-1.62 5.66 4.17 4.17 0 0 0 1.62-5.66zM475 517.2a1.54 1.54 0 1 0-2.1-.6 1.56 1.56 0 0 0 2.1.6zm164.46-155.34a4.32 4.32 0 1 0-1.68 5.88 4.33 4.33 0 0 0 1.68-5.88zm5.67-20.23a3.39 3.39 0 1 0-1.31 4.62 3.4 3.4 0 0 0 1.31-4.62zM535.55 491.44a2.63 2.63 0 1 0-3.57-1 2.64 2.64 0 0 0 3.57 1zm105.71-134.18a4.17 4.17 0 1 0-5.67-1.61 4.17 4.17 0 0 0 5.67 1.61zm-22.67 48.66a2.62 2.62 0 1 0-3.57-1 2.62 2.62 0 0 0 3.57 1zm23.88-77.47a4.78 4.78 0 1 0 6.5 1.85 4.78 4.78 0 0 0-6.5-1.85zm-17.58 69.79a4.78 4.78 0 1 0-6.51-1.85 4.79 4.79 0 0 0 6.51 1.85zM560 468.52a1.7 1.7 0 1 0 2.31.66 1.7 1.7 0 0 0-2.31-.66zm39.7-36.22a1.54 1.54 0 1 0-1.5-2.7 1.54 1.54 0 1 0 1.5 2.7zm-84.42 68.11a.82.82 0 1 0-1.12-.32.82.82 0 0 0 1.12.32zm53.05-39a1.7 1.7 0 1 0 1.65 3 1.7 1.7 0 1 0-1.65-3zm7.95-7.12a1.54 1.54 0 1 0 2.1.6 1.54 1.54 0 0 0-2.1-.59zM551.21 475a2 2 0 1 0 2.72.78 2 2 0 0 0-2.72-.78zm34.52-25.78a1.7 1.7 0 1 0-2.31-.66 1.69 1.69 0 0 0 2.31.7zM542.18 481a2.47 2.47 0 1 0 3.36 1 2.48 2.48 0 0 0-3.36-1zm-16.43 16a2.47 2.47 0 1 0-3.36-1 2.47 2.47 0 0 0 3.36 1zm-20.05 8.5a1.24 1.24 0 1 0-1.7-.5 1.23 1.23 0 0 0 1.7.5zm136.24-181.13a5.56 5.56 0 1 0 9.71-5.4 5.49 5.49 0 0 0-3.08-2.56 5.41 5.41 0 0 0 2.47-.69 5.55 5.55 0 0 0-1-10.13 5.6 5.6 0 1 0-2.22-.26 5.55 5.55 0 0 0-4.36 8.23 5.45 5.45 0 0 0 3.08 2.56 5.67 5.67 0 0 0-2.47.69 5.57 5.57 0 0 0-2.13 7.56zm-49 116.57a1.54 1.54 0 1 0-2.1-.59 1.54 1.54 0 0 0 2.07.59zm13.6-19.54a1.24 1.24 0 1 0-.48 1.68 1.23 1.23 0 0 0 .45-1.68zm6.44-9.1a1.54 1.54 0 1 0-.6 2.1 1.53 1.53 0 0 0 .62-2.1zm-160 108.76l.27.07.08-.27-.27-.08zm-55 3.26a1.06 1.06 0 0 0-.41 1.45 1.07 1.07 0 1 0 1.87-1 1.07 1.07 0 0 0-1.53-.45zm21.86-.56a1.54 1.54 0 1 0 2.1.59 1.54 1.54 0 0 0-2.17-.59zm-10.74.86a1.08 1.08 0 0 0-.42 1.46 1.07 1.07 0 1 0 .42-1.46zm32.86-2.51a.74.74 0 0 0-.29 1 .74.74 0 0 0 1.3-.72.74.74 0 0 0-1.08-.28zm-11.32.72a1.54 1.54 0 1 0 2.1.6 1.55 1.55 0 0 0-2.17-.6zm-43.08 2l.36.1.1-.36-.37-.1zm-22.74-4.43a2 2 0 1 0 2.72.78 2 2 0 0 0-2.79-.76zm11.83 2.89a.41.41 0 0 0-.16.55.4.4 0 0 0 .56.16.41.41 0 0 0 .16-.56.42.42 0 0 0-.63-.13zm-22.64-5a2 2 0 1 0 2.73.78 2 2 0 0 0-2.8-.81zm-10.27-2a1.24 1.24 0 1 0 1.68.48 1.23 1.23 0 0 0-1.75-.46zm-7.45-3.13a2.63 2.63 0 1 0-1 3.57 2.63 2.63 0 0 0 .93-3.55zm-12.94-1.88l.39.11.11-.39-.39-.11zM302 500.68a2.32 2.32 0 1 0 3.15.9 2.32 2.32 0 0 0-3.22-.88zm10.12 4.32a2.32 2.32 0 1 0 3.15.9 2.32 2.32 0 0 0-3.15-.9zM293 498.08l.45.12.13-.44-.45-.13zm-29-19.82a3.09 3.09 0 1 0 4.19 1.2 3.09 3.09 0 0 0-4.14-1.2zm9.17 6.7a2.31 2.31 0 1 0 3.15.9 2.32 2.32 0 0 0-3.1-.86zm10.28 6.9a.69.69 0 1 0 .68 1.21.68.68 0 0 0 .27-.94.69.69 0 0 0-.9-.27zm-27.21-17.5l.5.15.14-.51-.5-.14zm-8.24-6.71l.28.08.07-.27-.27-.08zm-8-7.18l.11-.39-.39-.11-.11.39zm-21.42-22.11a2.47 2.47 0 1 0-3.36-1 2.48 2.48 0 0 0 3.37 1zm-19.74-27.94a1.24 1.24 0 1 0-1.68-.48 1.23 1.23 0 0 0 1.69.48zm24.82 32.21a2 2 0 1 0 2.73.78 2 2 0 0 0-2.72-.78zm-11.79-13.2a2.32 2.32 0 1 0-3.15-.91 2.33 2.33 0 0 0 3.16.91zm-6.33-8.69a2.62 2.62 0 1 0-3.57-1 2.61 2.61 0 0 0 3.58 1zm25.83 32.05a.78.78 0 0 0 1.37-.75.78.78 0 1 0-1.37.75zM182.22 406v.09h.09v-.1zm-5.22-9.93v.09h.09v-.09zm-5.62-11.75a2.32 2.32 0 1 0 3.15.9 2.32 2.32 0 0 0-3.18-.9zm-3.08-8l.08-.27-.28-.08-.07.27zm-4-10.36l.18.06.06-.18-.18-.05zm-3.21-10.13l.06-.18-.19-.05v.18zm-4.69-19.65a2.16 2.16 0 1 0-2.94-.83 2.16 2.16 0 0 0 2.93.86zm2.1 9.71a1.08 1.08 0 1 0-1.47-.42 1.08 1.08 0 0 0 1.46.45zm-5.31-22.13l.27.08.07-.27-.27-.08zM151.64 313l.27.08.08-.28-.27-.07zm-1.2-44l-.27-.08-.08.27.27.08zm2.74-12.08a2.47 2.47 0 1 0-1 3.35 2.48 2.48 0 0 0 1-3.39zm0-7.74a2.32 2.32 0 1 0-3.14-.9 2.32 2.32 0 0 0 3.18.86zm.84-12.85l-.45-.13-.12.45.44.12zm2.17-10.81l-.45-.13-.13.45.44.13zm2.81-9.82a.76.76 0 0 0 .3-1 .78.78 0 1 0-.3 1zm2.89-11.26l-.27-.08-.08.28.27.07zm3.7-10.19l-.27-.08-.07.27.26.08zM443.17 27.8h-.09v.09h.09zM454 29.66h-.09v.09h.09zm21.53 5l-.27-.07-.07.27.27.07zm10.19 3.09l-.27-.08-.07.27.26.09zm20.94 9a1.24 1.24 0 1 0-1.68-.48 1.24 1.24 0 0 0 1.65.5zm10.19 4.32a1.24 1.24 0 0 0-1.21-2.16 1.24 1.24 0 1 0 1.21 2.16zm-20.38-8.64a1.24 1.24 0 1 0-1.68-.48 1.25 1.25 0 0 0 1.65.5zM525.9 55h-.09v.09h.08zm61.66 45.43l-.26-.07-.08.27.27.07zm7.61 7.7h-.18l-.06.18.19.06zm13.77 17h-.09v.09h.08zm6.48 8.65h-.08v.09h.09zm6.4 9.06l-.5-.14-.15.5.51.15zm11 19.05l-.18-.05v.19h.18zm5 9.67l-.5-.15-.14.51.5.14zm4.34 10.12l-.28-.08-.07.27.27.08zm7.67 20.75a.41.41 0 1 0-.4-.71.4.4 0 0 0-.16.55.41.41 0 0 0 .61.08zm-3.18-9.27a1.4 1.4 0 0 0 .54-1.89 1.38 1.38 0 0 0-1.89-.54 1.39 1.39 0 0 0 1.35 2.43zm6.46 19.42l-.38-.11-.12.39.39.11zm2.89 11.23a.6.6 0 0 0 .24-.83.61.61 0 0 0-.84-.25.62.62 0 0 0-.24.84.61.61 0 0 0 .89.16zm2 10.06l-.37-.1-.1.37.36.09zm1.87 11.4a.54.54 0 1 0-.73-.21.54.54 0 0 0 .8.13zm0 17.72a4 4 0 1 0 5.46 1.55 4 4 0 0 0-5.33-1.63zm4.66 18.93a4.94 4.94 0 1 0-6.71-1.92 4.94 4.94 0 0 0 6.81 1.84zm-7 9a5.25 5.25 0 1 0 2-7.14 5.25 5.25 0 0 0-1.88 7.1zm5.07-32.06a3.86 3.86 0 1 0-5.25-1.49 3.86 3.86 0 0 0 5.37 1.45zm-5.67 43.09a5.4 5.4 0 1 0 2.09-7.34 5.4 5.4 0 0 0-1.97 7.3zm-.93 10.81a5.4 5.4 0 1 0 2.1-7.35 5.42 5.42 0 0 0-1.98 7.31zm-12.86 75.07a4.48 4.48 0 1 0-6.09-1.74 4.48 4.48 0 0 0 6.21 1.7zm5.75-16a4.47 4.47 0 1 0-1.74 6.09 4.48 4.48 0 0 0 1.85-6.1zM462.67 530.91a1.08 1.08 0 1 0-.42 1.47 1.07 1.07 0 0 0 .42-1.47zm60.21-22.35a.94.94 0 1 0 1.28.36.94.94 0 0 0-1.28-.36zm-21 10.73a1.7 1.7 0 1 0 .66-2.3 1.7 1.7 0 0 0-.62 2.3zm57.69-34.74a1.54 1.54 0 1 0 2.1.6 1.55 1.55 0 0 0-2.06-.6zM614.85 431a1.24 1.24 0 1 0-.48 1.68 1.24 1.24 0 0 0 .48-1.68zm-6.22 8.49a1.54 1.54 0 1 0-.6 2.1 1.54 1.54 0 0 0 .6-2.13zm-67.22 57.21a2.16 2.16 0 1 0 2.93.84 2.16 2.16 0 0 0-2.93-.87zM494 524a1.7 1.7 0 1 0-2.31-.66 1.72 1.72 0 0 0 2.31.66zm156.45-157.11a3.7 3.7 0 1 0-5-1.44 3.7 3.7 0 0 0 5 1.44zm-23.29 45.41a1.54 1.54 0 1 0-.61 2.1 1.54 1.54 0 0 0 .61-2.1zM483.93 525.2a1.38 1.38 0 0 0-1.88-.54 1.39 1.39 0 0 0 1.35 2.43 1.38 1.38 0 0 0 .53-1.89zm137.36-103.64a1.53 1.53 0 0 0-2.1-.6 1.54 1.54 0 1 0 2.1.6zm32.5-87.75a4 4 0 1 0 1.56-5.46 4 4 0 0 0-1.56 5.46zm-85.62 144.24a1.39 1.39 0 1 0 1.89.54 1.39 1.39 0 0 0-1.89-.54zM586 466.24a1.7 1.7 0 1 0-2.3-.66 1.69 1.69 0 0 0 2.3.66zm7.72-8a1.7 1.7 0 1 0-1.65-3 1.71 1.71 0 0 0-.66 2.31 1.7 1.7 0 0 0 2.34.66zm57.88-113.86a3.86 3.86 0 1 0 1.5-5.24 3.87 3.87 0 0 0-1.5 5.24zm3-20.55a5.4 5.4 0 1 0 2.09-7.34 5.4 5.4 0 0 0-2.11 7.34zM532.21 502.48a1.69 1.69 0 0 0 1.65 3 1.69 1.69 0 1 0-1.65-3zm68.95-52.29a1.7 1.7 0 1 0-2.31-.66 1.7 1.7 0 0 0 2.31.66zM514 515.05a1.39 1.39 0 1 0-1.89-.54 1.39 1.39 0 0 0 1.89.54zm134.83-160.17a3.86 3.86 0 1 0 1.49-5.25 3.87 3.87 0 0 0-1.49 5.25zm-14.77 47.4a3.09 3.09 0 1 0-1.2 4.2 3.09 3.09 0 0 0 1.2-4.2zm-83.32 88.46a1.7 1.7 0 1 0 2.31.66 1.71 1.71 0 0 0-2.31-.66zm25.77-20.1a1.39 1.39 0 1 0 1.89.54 1.4 1.4 0 0 0-1.89-.54zM471.4 527.48a1.7 1.7 0 1 0 2.31.66 1.7 1.7 0 0 0-2.31-.66zM639.25 392a3.55 3.55 0 1 0-1.38 4.83 3.56 3.56 0 0 0 1.38-4.83zM450.77 533.93l.18.05.05-.18h-.17zM440 535.48h.18l.05-.18-.18-.06zm-10.81 1.23h.18l.05-.18-.18-.05zm-11.55-.6a1.54 1.54 0 1 0 2.1.6 1.52 1.52 0 0 0-2.13-.6zm-10.37 1.73l.4.12.11-.4-.39-.11zm-11.27-1.2a.9.9 0 1 0 1.23.35.91.91 0 0 0-1.23-.35zm-21.56-1.29a.41.41 0 1 0 .4.71.4.4 0 0 0 .16-.55.41.41 0 0 0-.58-.16zm10.46.14a1.54 1.54 0 1 0 2.1.6 1.53 1.53 0 0 0-2.12-.6zm-21.16-1l.38.11.12-.38-.39-.12zm-21.79-5.53a.87.87 0 0 0-.33 1.18.86.86 0 1 0 .33-1.18zm10.81 2.47a.86.86 0 1 0 1.17.34.86.86 0 0 0-1.19-.38zm-21.13-4.55h.18v-.17l-.18-.06zm-10.19-3.32l.28.08.07-.27-.27-.08zM311 519.24l-.07.27.27.08.08-.26zm-10.33-5.11a1.07 1.07 0 0 0 1 1.87 1.07 1.07 0 1 0-1-1.87zm-9.81-3.39l.45.12.13-.44-.45-.13zm-9.26-5.3h.09v-.08h-.1zm-17.75-12.11a1.24 1.24 0 1 0-.48 1.68 1.23 1.23 0 0 0 .48-1.68zm7.84 5.91a.54.54 0 1 0 .73.21.54.54 0 0 0-.73-.21zM252.74 488a1.21 1.21 0 0 0 1.67.48 1.23 1.23 0 1 0-1.67-.48zm-7.39-7.15l.05-.19-.17-.05-.06.18zm-8.51-6.85h.18v-.18l-.18-.05zm-7.84-7.31v-.18l-.18-.06-.05.18zm-8.21-7.9l.36.1.1-.36-.36-.1zm-7.11-8.12l.28.07.07-.27-.27-.07zm-20.38-26.44a.58.58 0 1 0 .56 1 .56.56 0 0 0 .22-.78.57.57 0 0 0-.78-.22zm14.88 17a2 2 0 1 0-.78 2.73 2 2 0 0 0 .78-2.72zm-7.11-5.64a2.32 2.32 0 1 0-3.15-.9 2.32 2.32 0 0 0 3.15.91zm-13.62-20.12l.27.07.07-.27-.27-.07zm-16.06-3.58h.1v-.09h-.09zm-4.85-9.54v-.09h-.09v.09zm-3.12-11.12a2 2 0 1 0-.78 2.72 2 2 0 0 0 .78-2.71zm-6.33-9.32a.41.41 0 0 0 .41.72.42.42 0 0 0 .16-.56.43.43 0 0 0-.57-.15zm-3.91-9.85l.39.11.11-.39-.39-.11zm-6.14-21l-.27-.07-.07.27.27.08zm-7.37-31.94a.57.57 0 1 0 .22-.78.57.57 0 0 0-.22.79zm-.09-65.07a.82.82 0 0 0 .32-1.12.83.83 0 0 0-1.12-.32.82.82 0 0 0 .8 1.44zm5 87.06A.66.66 0 0 0 144 340a.66.66 0 1 0 .64 1.16zm-2.29-11a.59.59 0 0 0 .23-.79.58.58 0 0 0-1 .57.58.58 0 0 0 .78.27zm-1.44-87.68l-.5-.15-.15.5.51.15zm1.67-10.85l-.36-.1-.1.36.36.1zm2.35-10.52l-.27-.08-.08.27.28.08zm2.55-10.85h-.09v.09h.09zM461.19 18.57l-.18-.05-.05.19h.18zm21.42 5.59l-.28-.08-.07.27.27.08zm11.12 4.95a1.69 1.69 0 1 0-1.64-3 1.69 1.69 0 0 0 1.64 3zM514 36.56a1.39 1.39 0 1 0-1.89-.54 1.39 1.39 0 0 0 1.89.54zM503.62 32a1.08 1.08 0 1 0-1.47-.42 1.08 1.08 0 0 0 1.47.42zm19.86 8l-.37-.1-.1.36.36.1zm9.52 4.79h-.09v.1h.08zm102.18 96.93h-.09v.09h.09zm5.56 9.26h-.09v.09h.09zm5.37 9.6l-.19-.05v.18h.18zm4.74 9.9l-.27-.08-.08.28.27.08zm11.88 30.6l-.38-.11-.12.39.39.11zm2.86 10.51l-.45-.13-.13.45.45.13zm3.56 12.88a2.16 2.16 0 1 0-2.94-.84 2.17 2.17 0 0 0 2.94.84zm1.27 8.7l-.37-.1-.1.36.36.1zm-1.58 88.92a3.39 3.39 0 1 0 1.31-4.62 3.39 3.39 0 0 0-1.31 4.62zm3.67-66.92a.75.75 0 0 0 1 .28.73.73 0 0 0 .29-1 .74.74 0 0 0-1-.29.75.75 0 0 0-.29 1.01zm2.71 58a4.17 4.17 0 1 0-5.67-1.62 4.17 4.17 0 0 0 5.67 1.57zm-1-46.79a.61.61 0 1 0-.84-.24.61.61 0 0 0 .88.19zm2.26 25.43a4.63 4.63 0 1 0-6.29-1.8 4.63 4.63 0 0 0 6.33 1.75zm2 4.29a5.4 5.4 0 1 0-2.1 7.34 5.4 5.4 0 0 0 2.15-7.39zm-7-51.69a.54.54 0 1 0 .94-.52.54.54 0 0 0-.94.52zm.77 28.19a4.63 4.63 0 1 0 6.3 1.8 4.64 4.64 0 0 0-6.22-1.85zM670 331.43l.11-.38-.38-.12-.12.39zm-12.3 50.26a3.86 3.86 0 1 0-1.5 5.25 3.86 3.86 0 0 0 1.53-5.25zm4-10.19a3.86 3.86 0 1 0-1.5 5.25 3.87 3.87 0 0 0 1.55-5.25zm-9.7 25.87a4.32 4.32 0 1 0-5.88-1.67 4.32 4.32 0 0 0 5.88 1.67zm-172.1 140a2 2 0 1 0 2.73.78 2 2 0 0 0-2.74-.75zm70.1-30.92a1.39 1.39 0 1 0 1.89.54 1.39 1.39 0 0 0-1.89-.54zm71.77-66.72a1.08 1.08 0 1 0 1.47.42 1.08 1.08 0 0 0-1.51-.42zM634 421.8a.9.9 0 0 0 .88 1.58.9.9 0 1 0-.88-1.58zM524.24 522.36a2.47 2.47 0 1 0-1 3.36 2.48 2.48 0 0 0 1-3.36zm16.08-10.6a1.85 1.85 0 1 0 2.52.72 1.84 1.84 0 0 0-2.52-.72zm89.88-81.09a1.85 1.85 0 1 0-.72 2.52 1.84 1.84 0 0 0 .72-2.52zm33.61-80.29a2.47 2.47 0 1 0 3.36 1 2.48 2.48 0 0 0-3.36-1zm1.08 11a3.39 3.39 0 1 0-1.32 4.61 3.39 3.39 0 0 0 1.32-4.6zm1.77-21.26a2 2 0 1 0 2.73.78 2 2 0 0 0-2.73-.77zM559.14 500.57a1.23 1.23 0 1 0 1.68.48 1.23 1.23 0 0 0-1.68-.48zm-45.36 26.57a2.16 2.16 0 1 0-.84 2.94 2.15 2.15 0 0 0 .84-2.94zM576.59 487a1.54 1.54 0 1 0 2.1.6 1.54 1.54 0 0 0-2.1-.6zm8.25-7.12a1.39 1.39 0 1 0 1.89.54 1.38 1.38 0 0 0-1.89-.52zm-81.5 51.33a1.69 1.69 0 1 0-3 1.65 1.69 1.69 0 1 0 3-1.65zm98.6-64a1.39 1.39 0 1 0-1.89-.53 1.38 1.38 0 0 0 1.89.52zm-132.46 73a2.16 2.16 0 1 0 2.94.84 2.15 2.15 0 0 0-2.94-.85zm169.63-128.78a1.85 1.85 0 1 0 1.8 3.24 1.85 1.85 0 1 0-1.8-3.24zm-45 63.47a1.54 1.54 0 1 0-2.1-.6 1.54 1.54 0 0 0 2.13.6zm-101.24 60.26a1.54 1.54 0 1 0-.6 2.1 1.56 1.56 0 0 0 .6-2.1zm123.35-84.61a1.23 1.23 0 1 0-1.2-2.15 1.23 1.23 0 1 0 1.2 2.15zm-156.78 93.16a.66.66 0 0 0-.25.9.64.64 0 0 0 .89.25.66.66 0 1 0-.64-1.15zm189.32-142.18a4 4 0 1 0-1.56 5.47 4 4 0 0 0 1.56-5.47zm-80.89 92.26a1.39 1.39 0 1 0 1.88.54 1.38 1.38 0 0 0-1.88-.54zm41.48-34.92a1.39 1.39 0 1 0-1.89-.54 1.39 1.39 0 0 0 1.89.54zM530.75 517a1.85 1.85 0 1 0 2.52.71 1.84 1.84 0 0 0-2.52-.71zm-81.83 29.76l.36.11.1-.37-.36-.1zM438.11 548l.37.1.1-.36-.36-.11zm-54.69.31a.48.48 0 0 0-.19.67.49.49 0 0 0 .67.2.51.51 0 0 0 .19-.68.5.5 0 0 0-.67-.18zm-11.17-1.48a1 1 0 1 0 1.34.39 1 1 0 0 0-1.34-.38zm22 2.41a.5.5 0 0 0-.19.67.5.5 0 0 0 .87-.48.51.51 0 0 0-.71-.18zm-32.82-4a.9.9 0 1 0 1.23.35.89.89 0 0 0-1.26-.3zm-10.65-1l.36.11.1-.37-.36-.1zm-10.5-2.45l.39.12.11-.39-.39-.11zm-10.49-3.07h.09v-.09h-.09zm-20.68-6.92l.27.08.08-.27-.27-.08zm-10.5-4.09l.51.14.14-.5-.51-.14zM289 523v.09h.09V523zm-29-16l.39.11.12-.39-.4-.12zm-8.29-6.19l-.28-.07-.07.27.27.08zm-9-6.21l.09-.27-.28-.07-.07.27zm-8.56-7.37l-.27-.07-.08.27.27.07zm-8.38-6.91l.27.09.09-.28-.28-.08zm-8-7.49l.18.05.05-.18-.18-.05zm-7.7-7.83v-.08h-.09v.09zm-7.22-8.1l.07-.27-.27-.08-.08.27zm-20.56-27.65a1.39 1.39 0 1 0 1.89.54 1.4 1.4 0 0 0-1.89-.52zM195 446.87a1.39 1.39 0 1 0 1.89.54 1.39 1.39 0 0 0-1.89-.54zm-3-8.77a3.09 3.09 0 1 0-1.2 4.19 3.09 3.09 0 0 0 1.2-4.19zm-14.58-16.93l-.37-.1-.1.36.37.1zm-26.57-23.25l-.14.5.5.15.15-.5zM140.78 379a2 2 0 1 0 .77-2.73 2 2 0 0 0-.77 2.73zm4.28 10a1.7 1.7 0 1 0 .66-2.31 1.69 1.69 0 0 0-.66 2.31zm-5.9-21.12l.05-.18-.18-.05-.05.18zM136 357.2h-.09v.09h.09zm-2.78-10.81h-.09v.09h.09zm-2.35-10.47l-.18-.05-.06.18.19.06zM129 325.11h-.19l-.05.17.18.06zm-2.71-21.87h.09v-.08h-.08zm-.39-10.85l-.17-.05-.06.18.19.06zm.39-32.68h.09v-.09h-.09zm.93-11.11h.09v-.09h-.08zm1.66-10.87h-.09v.09h.09zm1.85-10.8h-.09v.09h.09zm2.47-10.5h-.09v.09h.09zM490 14.37a1.08 1.08 0 1 0-1-1.88 1.08 1.08 0 1 0 1 1.88zm10.49 3.71a1.08 1.08 0 0 0 .42-1.47 1.08 1.08 0 0 0-1.89 1.05 1.09 1.09 0 0 0 1.51.42zm10.65 4a1.39 1.39 0 1 0-1.89-.54 1.39 1.39 0 0 0 1.93.51zm9.73 4.05a1.08 1.08 0 1 0-1.47-.42 1.07 1.07 0 0 0 1.51.39zm9.66 3.87h-.09v.09h.09zm93.24 74.4h-.1v.1h.09zM643 131l-.18-.06-.06.18.19.05zm6 9.28l-.27-.08-.08.27.27.09zm5 9.82h-.09v.09h.08zm17.66 40.5a.54.54 0 1 0-.73-.21.54.54 0 0 0 .74.16zm3 9.8l-.11.39.39.11.11-.39zm5.81 21.92a.66.66 0 1 0-.9-.26.67.67 0 0 0 .93.21zm-2.41-10.81a.48.48 0 0 0 .19-.67.49.49 0 1 0-.19.67zm4.44 21l-.18-.06-.05.18.18.05zm1.78 10.55l-.37-.11-.1.37.37.1zm3 33.71a1.08 1.08 0 1 0-1.47-.42 1.08 1.08 0 0 0 1.49.42zm-2.12-13.5a2 2 0 1 0 2.73.78 2 2 0 0 0-2.71-.78zM685 288a1.85 1.85 0 1 0 .72-2.52A1.85 1.85 0 0 0 685 288zm2.13 11.82a2 2 0 1 0-2.72-.78 2 2 0 0 0 2.72.77zm-3.34-44.62a2 2 0 1 0 .77-2.73 2 2 0 0 0-.77 2.72zm1.68 54l.11-.39-.39-.11-.11.39zm-1.58 9.8a.7.7 0 0 0 .68 1.22.7.7 0 1 0-.68-1.22zm-1.12 11.44l-.37-.11-.1.37.36.1zm-6.46 34.68a3.24 3.24 0 1 0-4.41-1.26 3.25 3.25 0 0 0 4.41 1.24zm-3.54 10.22a2.93 2.93 0 1 0-4-1.14 2.92 2.92 0 0 0 4 1.12zm5.44-23.78a.46.46 0 0 0-.62-.18.45.45 0 1 0 .62.18zm-9.15 34a2.93 2.93 0 1 0-4-1.14 2.93 2.93 0 0 0 4 1.09zm11-44.65a.46.46 0 0 0 .44.8.46.46 0 0 0 .18-.62.48.48 0 0 0-.62-.23zM667 391.34a4 4 0 1 0-1.56 5.46 4 4 0 0 0 1.56-5.46zm-4.37 9.73a4.32 4.32 0 1 0-1.68 5.87 4.31 4.31 0 0 0 1.66-5.87zm-15.69 18.56a3.24 3.24 0 1 0 4.41 1.26 3.25 3.25 0 0 0-4.43-1.26zm10-8.31a3.24 3.24 0 1 0-1.25 4.4 3.24 3.24 0 0 0 1.19-4.4zm-14.1 20.74l.18.05v-.18l-.18-.05zm-6.17 9.27l.5.14.15-.5-.51-.14zM477.89 550.4a2.32 2.32 0 1 0 3.15.9 2.32 2.32 0 0 0-3.15-.9zm21.11-6.21a2 2 0 1 0 2.72.78 2 2 0 0 0-2.72-.78zM616.25 466a1.24 1.24 0 1 0 1.68.48 1.24 1.24 0 0 0-1.68-.48zm-7.63 7.74a1.38 1.38 0 0 0-.54 1.89 1.39 1.39 0 1 0 .54-1.89zm-24 22.24a1.55 1.55 0 1 0 2.1.6 1.54 1.54 0 0 0-2.11-.58zm-45.37 30.57a1.54 1.54 0 1 0 2.09.6 1.53 1.53 0 0 0-2.1-.61zm-19.83 9.62a2 2 0 1 0 2.73.78 2 2 0 0 0-2.74-.79zm39.13-19.92a.66.66 0 1 0 .64 1.15.67.67 0 0 0 .25-.9.65.65 0 0 0-.9-.26zm-29.25 15a2 2 0 1 0 2.7.75 2 2 0 0 0-2.71-.78zm63.58-42.37a1.39 1.39 0 1 0 1.89.54 1.4 1.4 0 0 0-1.9-.57zm8-7.4a1.39 1.39 0 1 0 1.89.54 1.38 1.38 0 0 0-1.87-.57zm-133.49 71.39a2.32 2.32 0 1 0 3.16.9 2.32 2.32 0 0 0-3.16-.9zm42.21-12.13a1.54 1.54 0 1 0 2.1.6 1.53 1.53 0 0 0-2.1-.6zM630.07 449a1.08 1.08 0 1 0 1.47.42 1.1 1.1 0 0 0-1.47-.42zm-81 72.83a.92.92 0 0 0-.35 1.23.91.91 0 0 0 1.59-.87.92.92 0 0 0-1.22-.37zm27-18.78a1.23 1.23 0 0 0-.48 1.68 1.24 1.24 0 1 0 2.16-1.21 1.23 1.23 0 0 0-1.63-.52zM457 555.59a1.85 1.85 0 1 0 2.52.72 1.85 1.85 0 0 0-2.52-.72zm-10.25 2.92a.54.54 0 0 0 .52.94.54.54 0 0 0 .21-.73.55.55 0 0 0-.76-.21zm41.9-10.91a2.17 2.17 0 0 0-.84 2.94 2.16 2.16 0 1 0 .84-2.94zm78.87-37.54a.66.66 0 1 0 .64 1.15.66.66 0 0 0 .26-.89.67.67 0 0 0-.93-.26zm56.06-51.89a.41.41 0 1 0 .56.16.41.41 0 0 0-.59-.16zM392.42 561.63h.09v-.09h-.09zm-11.11-.63h.09v-.09h-.09zm-10.8-1.24h.09v-.09h-.08zm-11.27-2.44a.9.9 0 0 0 .88 1.58.9.9 0 0 0-.88-1.58zm-10.56-1.87a.78.78 0 1 0 1.07.3.79.79 0 0 0-1.07-.29zM338.09 554l.51.14.14-.5-.5-.14zm-10.8-3.08l.5.14.14-.5-.5-.15zm-20.66-7.53a.67.67 0 0 0-.25.89.64.64 0 0 0 .89.26.66.66 0 0 0 .26-.89.67.67 0 0 0-.9-.25zm-10.18-4a.66.66 0 0 0-.26.89.66.66 0 1 0 1.15-.64.66.66 0 0 0-.89-.25zm-9.6-4h.09v-.08h-.09zm-19.45-9.88h.09v-.09h-.1zm-9.57-5.51h.09v-.1h-.09zm-9.26-5.87l.39.1.11-.38-.39-.12zm-8.95-6.39h.17l.06-.17-.18-.05zm-8.47-6.74v-.19h-.18l-.05.18zm-5.81-8.53a3.09 3.09 0 1 0-1.2 4.19 3.09 3.09 0 0 0 1.2-4.23zm-11.71-7.24a1.7 1.7 0 1 0 2.31.66 1.7 1.7 0 0 0-2.31-.7zm-7.34-6.93a.61.61 0 0 0-.24.84.6.6 0 0 0 .83.24.62.62 0 0 0 .25-.84.62.62 0 0 0-.84-.28zm-21.37-24.4a.49.49 0 0 0 .48.86.48.48 0 0 0 .19-.67.49.49 0 0 0-.67-.23zm-4.79-9.07a1.7 1.7 0 1 0-.66 2.31 1.7 1.7 0 0 0 .66-2.35zm19.65 27.37a1.23 1.23 0 1 0-1.21-2.15 1.23 1.23 0 0 0 1.21 2.15zM172 436.64l.45.13.13-.44-.45-.13zm-31.7-32.43v-.09h-.09v.09zm-4.05-9.21a1.08 1.08 0 0 0 .41-1.46 1.07 1.07 0 0 0-1.87 1 1.08 1.08 0 0 0 1.46.46zm-5.5-12.87a2 2 0 1 0 2.73.78 2 2 0 0 0-2.73-.79zm-2.23-8.5l-.26-.09-.09.28.28.08zm-3.27-10.48l-.36-.1-.11.36.36.11zM122 352.9l.36.11.11-.37-.37-.1zM486.7 0h-.09v.09h.09zm20.9 6.59l-.5-.14-.1.55.51.15zm10.35 4l-.39-.1-.11.39.39.11zm9.88 4.33l-.39-.11-.11.39.39.11zm123.09 105.5h-.08v.09h.09zm5.68 9.28h-.18v.17h.18zm5.56 9.57h-.18l-.06.17h.19zm14.5 29.33h-.18l-.05.18.18.05zm3.48 10.53l.39.11.11-.39-.39-.11zm4.2 9.91l-.38-.11-.12.38.39.12zm3.14 10.75l-.19-.06v.19l.18.05zm2.89 10.51l-.28-.07-.07.27.27.08zm2.23 10.76h-.09v.09h.09zm2.16 10.49h-.09v.09h.09zm1.66 10.84l-.18-.06v.19h.18zm1.5 10.86l-.38-.11-.12.39.4.11zm-1.17 44.85a2 2 0 1 0 .78-2.73 2 2 0 0 0-.78 2.73zm1.73 11.33a1.54 1.54 0 1 0-1.5-2.69 1.54 1.54 0 1 0 1.5 2.69zm-.93-44.7a.94.94 0 0 0 1.28.37.95.95 0 1 0-1.28-.37zm-.69 54.63l.1-.37-.36-.1-.1.37zm-1.75 10.44l-.36-.1-.1.36.36.1zm-33.17 91.43a1.24 1.24 0 1 0 1.68.48 1.24 1.24 0 0 0-1.68-.48zm23.95-46.48a2.63 2.63 0 1 0-3.57-1 2.64 2.64 0 0 0 3.57 1zm-14.82 25.68a2.78 2.78 0 1 0 3.78 1.08 2.79 2.79 0 0 0-3.78-1.08zm8.79-19.79a2.47 2.47 0 1 0 3.36.95 2.45 2.45 0 0 0-3.36-.95zm11-28.8a.78.78 0 1 0-1.06-.3.77.77 0 0 0 1.07.3zm-11.12 39.64a3.09 3.09 0 1 0-1.2 4.2 3.09 3.09 0 0 0 1.21-4.2zm8.4-28.6a1.24 1.24 0 1 0-1.68-.48 1.24 1.24 0 0 0 1.69.48zm-21.41 48a2.16 2.16 0 1 0 2.94.84 2.17 2.17 0 0 0-2.93-.87zM657 431.35a.71.71 0 0 0-.27.95.69.69 0 0 0 1 .27.7.7 0 1 0-.68-1.22zm36.37-89.93a.81.81 0 0 0 .32-1.11.82.82 0 1 0-.32 1.11zm-42 99.81h.09v-.09h-.09zm-6.18 9l.19.06v-.19l-.18-.05zm-6.48 9l.18.06.06-.18-.19-.06zm-13.83 17.07l.27.07.08-.27-.23-.1zm-7.72 7.89l.45.13.13-.46-.45-.12zm-15.43 15.17l.18.05.05-.18-.18-.06zm-8.34 7h.09v-.09h-.09zm-8.64 7.1h.09v-.09h-.09zm-17.6 12.65h.1v-.08h-.09zm-9.26 6h.18v-.18h-.18zm-9.89 5.42l.39.12.12-.39-.4-.11zm-92.5 31.83a.82.82 0 1 0 .81 1.43.83.83 0 0 0 .31-1.12.82.82 0 0 0-1.11-.31zm10-3.52a2.31 2.31 0 1 0 3.14.9 2.31 2.31 0 0 0-3.09-.9zm72.6-24.22a1.24 1.24 0 1 0 1.68.48 1.23 1.23 0 0 0-1.63-.48zm-51.53 19a2.47 2.47 0 1 0 3.35 1 2.46 2.46 0 0 0-3.3-1.01zm21.06-6.85a2 2 0 1 0 2.73.78 2 2 0 0 0-2.68-.79zm10.19-4a2 2 0 0 0-.79 2.72 2 2 0 1 0 3.51-1.94 2 2 0 0 0-2.67-.8zm-42 13.35a2.63 2.63 0 1 0 3.57 1 2.63 2.63 0 0 0-3.5-1.02zm21.22-5.89a2.47 2.47 0 1 0 3.36 1 2.48 2.48 0 0 0-3.29-1.02zm30.94-11.47a2 2 0 1 0 2.73.77 2 2 0 0 0-2.66-.79zm-170.2 24.53h.09v-.09h-.09zm-10.8-1.85h.08v-.09h-.09zm-10.86-3.12a.49.49 0 1 0 .48.86.49.49 0 1 0-.48-.86zm-10.75-2.14l.39.11.11-.39-.39-.11zm-20.69-6.74l.45.13.13-.45-.45-.12zm-10.18-4.06h.08v-.09h-.09zm-9.81-4.38h.09v-.09h-.09zm-29.33-15.35l.18.06.06-.19h-.19zm-9.26-5.86h.18l.05-.18-.18-.05zm-8.95-6.17l.18.05v-.18h-.18zm-26.82-22.41a2.47 2.47 0 1 0 3.35 1 2.46 2.46 0 0 0-3.35-.96zm19.23 15.22a1.39 1.39 0 1 0-.54 1.89 1.38 1.38 0 0 0 .54-1.85zm-8.64-6.79a1.39 1.39 0 1 0-.54 1.89 1.39 1.39 0 0 0 .54-1.85zm-15.27-14.84a2.47 2.47 0 1 0-1 3.36 2.46 2.46 0 0 0 1-3.36zm-10.18-6.47l.36.11.11-.36-.36-.11zm-7.41-8.11l.27.07.08-.27-.27-.07zm-7.56-9.11a.91.91 0 0 0-.35 1.23.9.9 0 1 0 .35-1.23zm-6.61-8.37a.67.67 0 0 0-.25.9.66.66 0 0 0 .89.26.66.66 0 1 0-.64-1.16zm-4-9.61a2.47 2.47 0 1 0-1 3.35 2.47 2.47 0 0 0 .96-3.35zm-8.34-7.4l.37.11.1-.37-.36-.1zm-21.95-12.92h.09v-.09h-.09zm-5.14-9.95h-.09v.09h.09zm-5.05-9.51l.39.11.11-.39-.39-.11zM624 67.69l-.27-.08-.07.27.27.08zm7.18 8h-.09v.09h.09zm33.26 43.58l-.27-.08-.07.27.27.08zm6 9.3l-.39-.12-.11.39.39.11zm5.41 10.53a1.07 1.07 0 1 0-1-1.87 1.07 1.07 0 0 0 1 1.87zm4.89 9.34a.62.62 0 0 0 .24-.84.62.62 0 1 0-1.08.6.63.63 0 0 0 .85.21zm8.47 19.56h-.09v.1h.09zm4.24 9.93l-.27-.08-.08.27.27.08zm3.55 10.49l-.39-.11-.11.39.39.11zm2.7 10.41h-.09v.09h.08zm2.78 10.81h-.09v.09h.1zM707 231l-.28-.07-.07.27.27.08zm1.62 10.76h-.09v.09h.09zm1.46 10.86l-.27-.08-.08.27.27.08zm.14 10.23a.94.94 0 0 0-.37 1.28.95.95 0 1 0 .37-1.28zm.25 33.22l-.12.39.39.11.11-.39zm-.23 11.22l-.4-.11-.11.39.39.11zm-1 10.8L709 318l-.1.36.36.11zm-1.51 10.81l-.39-.11-.11.39.39.11zm-2 11.47a.41.41 0 1 0-.4-.72.42.42 0 0 0-.16.56.41.41 0 0 0 .58.14zm-3.29 10.57a.78.78 0 1 0 1.37-.75.78.78 0 0 0-1.37.75zm-1.59 10.35l-.28-.09-.08.27.27.09zm-5.94 22.52a1.85 1.85 0 1 0-2.52-.71 1.86 1.86 0 0 0 2.54.69zm4.11-13a1.85 1.85 0 1 0-.72 2.52 1.85 1.85 0 0 0 .7-2.55zM680.7 411.1a1.7 1.7 0 1 0 2.31.66 1.7 1.7 0 0 0-2.31-.66zm4.63-10.19a1.7 1.7 0 1 0 2.31.66 1.7 1.7 0 0 0-2.31-.66zm3.72-10.72a2.31 2.31 0 1 0 3.14.89 2.31 2.31 0 0 0-3.14-.89zM676 421a1.54 1.54 0 1 0 2.1.6 1.54 1.54 0 0 0-2.1-.6zm-4.82 10.37a.58.58 0 0 0 .56 1 .58.58 0 0 0 .23-.78.59.59 0 0 0-.8-.26zm-5.54 10.17l.36.1.11-.35-.36-.11zm-32.41 43.56h.09v-.09h-.09zm-58 50.31l.39.11.11-.38-.39-.12zm-9.26 5.85l.36.1.1-.36-.36-.11zm-49.83 22.44a2.16 2.16 0 1 0 2.94.84 2.16 2.16 0 0 0-2.99-.88zm30.63-12.25a.49.49 0 0 0 .48.86.48.48 0 0 0 .19-.67.49.49 0 0 0-.72-.23zm-40.81 16a2.16 2.16 0 1 0 2.93.84 2.15 2.15 0 0 0-2.98-.93zm30.4-12.08a1.85 1.85 0 1 0 2.52.72 1.85 1.85 0 0 0-2.57-.81zm-61.67 21.86a1.39 1.39 0 1 0 1.89.54 1.4 1.4 0 0 0-1.94-.63zm51.64-17.8a2.16 2.16 0 1 0 2.94.83 2.15 2.15 0 0 0-2.99-.92zm-41.52 14.24a2.47 2.47 0 1 0 3.36.95 2.47 2.47 0 0 0-3.41-1.04zm10.65-2.82a2.16 2.16 0 1 0 2.94.84 2.15 2.15 0 0 0-2.99-.93zm-31.06 10.11l.51.14.14-.5-.5-.15zm-119.46-.42h.09v-.09h-.09zM334.39 578h.09v-.09h-.09zm-42-13.28h.09v-.1h-.09zm-29.64-13.89h.09v-.09h-.09zm-10.47-7a1.85 1.85 0 1 0 2.52.72 1.86 1.86 0 0 0-2.5-.69zm-18.08-10.92a.91.91 0 0 0-.36 1.23.93.93 0 0 0 1.24.35.91.91 0 0 0 .35-1.23.9.9 0 0 0-1.21-.32zM243 538a1.85 1.85 0 1 0 2.52.72A1.84 1.84 0 0 0 243 538zm-17.62-10.54l.5.14.14-.5-.5-.14zm-8.3-6.46h.18l.06-.18-.18-.06zm-47.3-47a1.07 1.07 0 1 0 1.46.41 1.08 1.08 0 0 0-1.46-.41zm-19.67-26.84a1.24 1.24 0 1 0 1.68.48 1.23 1.23 0 0 0-1.68-.48zm41.53 50.67a1.54 1.54 0 1 0 2.1.6 1.53 1.53 0 0 0-2.1-.6zm-14.84-15.52a.9.9 0 1 0 1.23.35.91.91 0 0 0-1.23-.35zm22.86 22.93a1.54 1.54 0 1 0 2.1.59 1.54 1.54 0 0 0-2.1-.59zm-15.07-14.34a.44.44 0 0 0-.17.61.45.45 0 0 0 .61.18.46.46 0 0 0 .18-.62.46.46 0 0 0-.62-.17zm23.77 22.53a.46.46 0 0 0-.17.62.45.45 0 0 0 .79-.44.46.46 0 0 0-.62-.18zm-45.27-47.82a.66.66 0 1 0 .64 1.15.67.67 0 0 0 .25-.9.65.65 0 0 0-.89-.25zm-7.48-10.83a2.93 2.93 0 1 0 4 1.14 2.93 2.93 0 0 0-4-1.14zm-10.77-15.53l.28.07.07-.27-.27-.07zm-20.76-12.62a1 1 0 1 0-1.34-.39 1 1 0 0 0 1.34.39zm4.29 8.15a1 1 0 1 0 1.35.39 1 1 0 0 0-1.35-.39zm543.86-326.09h-.09v.1h.1zm5.78 9l-.27-.07-.07.27.27.08zm5.56 9.57l-.27-.07-.08.26.27.08zm5.08 10.19a.54.54 0 1 0-.73-.21.54.54 0 0 0 .73.21zm5.1 9.33l-.5-.14-.15.5.51.14zm4.1 10.07h-.09v.1h.09zm4.15 10.21l-.18-.05v.18l.18.06zm4 10l-.45-.13-.13.45.45.12zm13.36 53.35l-.28-.08-.08.27.28.08zm1.54 10.8l-.27-.07-.08.27.27.07zm2.27 54.36l-.36-.1-.1.36.37.11zm-.66 11.71a.7.7 0 1 0-.95-.28.71.71 0 0 0 .98.24zM720.66 318a.66.66 0 1 0 .26-.9.66.66 0 0 0-.26.9zm-1.54 10.8a.65.65 0 0 0 .89.26.67.67 0 0 0 .26-.9.66.66 0 0 0-1.15.64zm-.82 10.25l-.39-.11-.11.39.39.11zm-2.3 10.79l-.27-.08-.08.27.27.08zm-2.47 10.81l-.27-.08-.08.27.27.08zm-7.85 21.89a1.69 1.69 0 1 0 .65-2.31 1.69 1.69 0 0 0-.66 2.31zm-7.06 18.06a1.7 1.7 0 1 0 2.31.66 1.7 1.7 0 0 0-2.32-.66zm-9 20.07a1.7 1.7 0 1 0 2.31.66 1.7 1.7 0 0 0-2.28-.66zm21.1-49a.66.66 0 1 0-.64-1.15.64.64 0 0 0-.25.89.66.66 0 0 0 .92.27zm-26 59.12A1.23 1.23 0 0 0 686 433a1.23 1.23 0 1 0-1.19-2.16zm19.71-37.13A1.85 1.85 0 1 0 702 393a1.84 1.84 0 0 0 2.5.67zm-10.36 16.85a2 2 0 1 0 2.72.78 2 2 0 0 0-2.65-.77zm-53.21 83.8l.39.11.11-.39-.39-.11zm-7.1 8.21l.27.08.08-.26-.27-.09zm-7.72 7.54h.09v-.1h-.09zm-42.6 34.27h.1v-.09h-.09zm-47.85 26.55h.1v-.09h-.09zm-41.33 14.5a.65.65 0 0 0-.26.89.67.67 0 0 0 .9.26.66.66 0 0 0 .25-.9.64.64 0 0 0-.82-.24zm20.22-8.15a2.16 2.16 0 1 0 2.94.84 2.16 2.16 0 0 0-2.87-.83zm10.73-2.64a.83.83 0 0 0-.32 1.12.82.82 0 1 0 .32-1.12zm-21.08 6.62a1.85 1.85 0 1 0 2.52.71 1.86 1.86 0 0 0-2.45-.7zm-20.09 7.66h.18l.06-.18h-.19zm-10.8 2.65l.36.11.1-.37-.36-.1zm-10.81 2.16l.36.1.11-.36-.37-.1zm-151.26-9.53h.08v-.09h-.09zm-10.5-3.31h.18l.06-.18-.18-.05zm-50-22.53l.18.06.05-.19-.18-.05zm-10.09-7.11a1.39 1.39 0 1 0 1.89.54 1.4 1.4 0 0 0-1.83-.53zM223 540a.66.66 0 1 0 .89.25.66.66 0 0 0-.89-.25zm8.4 5.65a1.39 1.39 0 1 0 1.89.53 1.38 1.38 0 0 0-1.91-.52zm-17.1-11.5h.1v-.08h-.09zm-8.7-7.15a.49.49 0 1 0 .68.19.51.51 0 0 0-.68-.19zm-8.28-6.58l.27.08.08-.27-.27-.08zm-8.32-7.16l.5.14.15-.5-.51-.14zm-8-7.72l.51.15.14-.51-.5-.14zm-7.41-7.82l.39.1.11-.39-.39-.11zm-7.59-9.23a.9.9 0 1 0 1.23.35.9.9 0 0 0-1.23-.35zm-6.65-7.49l.37.1.1-.37-.36-.1zm-7.1-8.5l.5.14.15-.5-.5-.15zm-7.44-11.5a2.93 2.93 0 1 0 4 1.14 2.92 2.92 0 0 0-4-1.14zm-6.09-9.25a3.09 3.09 0 1 0 4.19 1.2 3.09 3.09 0 0 0-4.19-1.24zm-4.1-6.74l-.45-.13-.13.45.45.13zm551.19-337.86h-.09v.09h.09zm5.94 9.34l-.39-.11-.11.39.39.11zm5.32 9.59l-.44-.13-.13.45.44.13zm4.45 9.75l-.08.27.27.08.08-.27zm4.89 10l-.27-.08-.07.27.27.07zm4.63 9.94l-.5-.14-.15.5.51.14zm3.79 10.38h-.09v.09h.09zm3.7 10.18h-.09v.09h.09zm12.85 53.17h.09v-.09h-.1zm1.66 11h-.09v.09h.09zm2.07 54.61v.1h.09v-.09zm-.52 10.89h-.1v.09h.09zm-1.37 10.55a.57.57 0 0 0-.22.78.56.56 0 0 0 .78.22.57.57 0 1 0-.56-1zm-4.85 32.64l-.07.28.27.07.07-.27zm-5.61 20.23a1.23 1.23 0 0 0-.48 1.68 1.24 1.24 0 0 0 2.16-1.2 1.24 1.24 0 0 0-1.68-.53zm2.7-10.52a1.08 1.08 0 1 0 1.46.42 1.07 1.07 0 0 0-1.46-.47zm-3.57 21.1a1.85 1.85 0 1 0-.72 2.52 1.87 1.87 0 0 0 .72-2.52zm-14.17 29.9a2 2 0 1 0 2.73.78 2 2 0 0 0-2.73-.78zm4.09-10.16a2.16 2.16 0 1 0 2.94.83 2.15 2.15 0 0 0-2.94-.83zm6.37-9.2a1.85 1.85 0 1 0-3.24 1.8 1.86 1.86 0 0 0 2.53.71 1.84 1.84 0 0 0 .71-2.51zm-15.09 29.55a2 2 0 1 0 2.73.78 2 2 0 0 0-2.73-.78zm-3.81 11.58h.09v-.08h-.09zm-57.42 79.63h.09v-.09h-.09zm-107.74 73.87l.19.06.05-.19h-.19zm-10.22 3.29a.53.53 0 1 0 .52.93.53.53 0 1 0-.52-.93zm-10.46 4.34l.39.11.11-.39-.39-.12zm-10.19 3.58l.27.08.08-.27-.28-.08zm-10.5 3.09l.27.07.08-.26-.27-.08zm-10.49 2.68l.18.06.05-.19h-.18zm-173.18-5.86l.18.05.05-.18h-.18zm-10.5-3.4l.18.05.05-.18h-.18zm-10.42-4.41a.74.74 0 0 0 .71 1.3.74.74 0 0 0-.71-1.3zm-10-3.31l.19.06.05-.18-.18-.06zM239 565.33h.09v-.09h-.08zM220.2 553a.66.66 0 1 0 .64 1.15.65.65 0 0 0 .25-.89.66.66 0 0 0-.89-.26zm9.26 6.18a.66.66 0 0 0-.26.89.67.67 0 0 0 .9.26.66.66 0 0 0 .25-.9.64.64 0 0 0-.89-.28zm-17.94-11.48l.37.1.1-.36-.36-.11zm-8.64-6.77l.39.11.11-.39-.39-.11zm-8.64-6.82l.36.11.11-.37-.37-.1zm-16.06-14.78h.1v-.09h-.09zm-7.71-7.72h.09v-.09h-.1zm-7.72-7.93l.18.05v-.18l-.18-.05zm-21-25.14l.36.11.1-.37-.36-.1zm-6.93-10.66a1.54 1.54 0 1 0 2.1.6 1.55 1.55 0 0 0-2.09-.6zm-5.73-7.52l.39.11.11-.39-.39-.11zm-5.48-9.65l-.08.27.27.08.08-.27zm570.14-354l-.27-.08-.08.27.27.08zm5.79 9l-.45-.12-.09.41.45.13zm5.55 9.57l-.45-.12-.12.44.44.13zm5 10.21a.4.4 0 0 0 .16-.55.4.4 0 0 0-.55-.16.41.41 0 0 0-.16.56.39.39 0 0 0 .53.14zm5 9.5l-.27-.08-.08.28.27.08zm4.4 9.83h-.09v.09h.1zm9.78 244.93a1.24 1.24 0 1 0 1.68.48 1.23 1.23 0 0 0-1.71-.49zm3.51-9.92a.87.87 0 1 0 1.19.34.86.86 0 0 0-1.22-.35zm-6.92 21.69l.5.14.14-.5-.5-.16zm-4.46 8.64a1.56 1.56 0 0 0-.6 2.1 1.54 1.54 0 1 0 .6-2.1zm-3.87 10.69a.62.62 0 1 0 .84.24.62.62 0 0 0-.87-.25zm-4.64 10.81l.39.11.11-.39-.39-.11zm-4.94 9.76l.27.09.08-.28-.28-.08zM532.58 598.76h.18v-.18h-.18zm-10.19 3.92h.09v-.09h-.09zm-10.5 3.71h.09v-.09h-.09zm-215.47-1.06l.27.08.08-.27-.27-.08zm-10.19-3.7l.28.08.07-.28-.26-.07zM276 597.09a.41.41 0 0 0 .4.72.42.42 0 0 0 .15-.56.4.4 0 0 0-.55-.16zm-10.09-3.93l.44.13.13-.45-.45-.13zm-9.88-4.5l.27.08.07-.27-.27-.08zm-28.71-15.92h.09v-.1h-.1zm-9.32-5.91l.36.11.1-.36-.36-.11zm-9-6.16l.37.1.1-.37-.36-.1zm-17.59-13.26l.39.12.11-.4-.39-.11zm-8.34-7.08h.1v-.09h-.09zm-38.59-38.61l.39.12.11-.39-.38-.11zM131 484.32l.27.08.08-.27-.27-.08zm-6.54-10a1.08 1.08 0 1 0 1.47.41 1.08 1.08 0 0 0-1.52-.42zm588.36-369.54l-.45-.13-.13.45.45.13zm5.48 9.55l-.39-.11-.11.38.39.12zm4.86 9.8h-.08v.09h.09zm4.52 10.21l.36.1.1-.36-.36-.1zm3.39 287l.28.07.07-.27-.27-.08zm-4.32 9.78l.18.05.07-.17-.18-.05zm-5 9.46a.53.53 0 1 0 .73.21.54.54 0 0 0-.7-.2zm-16 29h.09v-.09h-.09zm-431.87 140.2h.09v-.09h-.09zm-10.18-4.14l.27.08.07-.27-.27-.08zm-9.88-4.72l.17.05.06-.18h-.19zm-9.88-4.92h.18v-.17l-.18-.06zm-103.11-80.07l.39.11.11-.39-.39-.11zm-7.1-8.34l.39.11.12-.39-.4-.11zm597-57.1h.09v-.1h-.08zm-5.25 9.57h.09v-.09h-.1zm-5.48 9.57h.09v-.09h-.1zM222.64 598.36h.09v-.1h-.09zM130 522.1l.38.11.12-.39-.39-.11zm604.13-52.48l.39.11.11-.39-.38-.11zM210.91 605.45h.08v-.09h-.09z" fill="#e0f3fa"/></svg>