<svg xmlns="http://www.w3.org/2000/svg" width="464" height="100" viewBox="0 0 464 100">
  <g fill="none">
    <path fill="#0D00FF" d="M50,0 C77.6142375,1.69088438e-15 100,22.3857625 100,50 C100,77.6142375 77.6142375,100 50,100 L50,85 C61.73,76 75,63.81 75,50 C75,36.1928813 63.8071187,25 50,25 L50,0 Z"/>
    <path fill="#0033FF" d="M50,15 C33.5,26.5 25,36.19 25,50 C25,63.8071187 36.1928813,75 50,75 L50,100 C22.3857625,100 3.38176876e-15,77.6142375 0,50 C-3.38176876e-15,22.3857625 22.3857625,5.07265313e-15 50,0 L50,15 Z"/>
    <path fill="#363636" d="M160.51,64.470981 C160.532397,67.1301146 160.078572,69.771783 159.17,72.270981 C158.28034,74.68279 156.996193,76.9300477 155.37,78.920981 C153.54252,80.859349 151.346206,82.4130884 148.91,83.490981 C146.090649,84.7052496 143.038049,85.2823072 139.97,85.180981 C135.296149,85.3927915 130.683415,84.0532706 126.85,81.370981 C123.137863,78.4660137 120.685214,74.2445931 120,69.580981 L131.45,66.940981 C131.829571,68.9284822 132.749989,70.7727799 134.11,72.270981 C135.500436,73.6967225 137.470748,74.4014595 139.45,74.180981 C142.87,74.180981 145.15,73.040981 146.45,70.750981 C147.871547,67.7305133 148.461831,64.3855741 148.16,61.060981 L148.16,15.180981 L160.53,15.180981 L160.51,64.470981 Z M227.51,58.290981 C227.498503,62.0886338 226.786592,65.8515894 225.41,69.390981 C222.775422,75.7952747 217.572383,80.7987555 211.07,83.180981 C204.009806,85.671146 196.310194,85.671146 189.25,83.180981 C186.081739,81.9252034 183.165276,80.1096122 180.64,77.820981 C178.071757,75.521681 176.101728,72.6318479 174.9,69.400981 C173.447257,65.8835301 172.729212,62.106139 172.79,58.300981 L172.79,15.040981 L184.85,15.040981 L184.85,57.720981 C184.901094,59.4654337 185.159577,61.1976103 185.62,62.880981 C186.210058,64.6567309 187.048364,66.3400764 188.11,67.880981 C189.384967,69.5108537 191.021367,70.8220281 192.89,71.710981 C197.617812,73.6204606 202.902188,73.6204606 207.63,71.710981 C209.482933,70.7705952 211.123378,69.4602811 212.45,67.860981 C213.548438,66.3420554 214.389658,64.6528581 214.94,62.860981 C215.473759,61.1938777 215.733797,59.4512855 215.71,57.700981 L215.71,15.040981 L227.76,15.040981 L227.57,58.290981 L227.51,58.290981 Z M274.73,31.390981 C273.416856,29.6450483 271.701593,28.2419635 269.73,27.300981 C267.613727,26.3977257 265.330632,25.9513295 263.03,25.990981 C261.647846,25.9951663 260.272411,26.1834899 258.94,26.550981 C257.714503,26.9317557 256.528926,27.4307695 255.4,28.040981 C254.405298,28.7155697 253.577627,29.6082232 252.98,30.650981 C252.213907,31.801821 251.884091,33.1884627 252.05,34.560981 C251.91229,36.4953681 252.748792,38.3709313 254.28,39.560981 C256.073701,40.8381385 258.010087,41.9019763 260.05,42.730981 C262.538562,43.7093048 265.087086,44.5276382 267.68,45.180981 C270.376895,45.9088219 272.948993,47.0381177 275.31,48.530981 C277.619733,49.9447321 279.589732,51.8498614 281.08,54.110981 C282.754287,56.9843227 283.530901,60.2927686 283.31,63.610981 C283.342825,66.8065352 282.709359,69.9738634 281.45,72.910981 C280.201496,75.4844017 278.426533,77.7669831 276.24,79.610981 C273.927217,81.4162715 271.279527,82.7452147 268.45,83.520981 C265.439275,84.4830933 262.300612,84.9854142 259.14,85.010981 C255.08644,85.0108321 251.061265,84.3349001 247.23,83.010981 C243.378096,81.6479021 239.967327,79.26693 237.36,76.120981 L246.3,67.560981 C247.738054,69.6457923 249.650485,71.3594398 251.88,72.560981 C254.166461,73.7479013 256.726904,74.3069198 259.3,74.180981 C260.744666,74.1769312 262.182923,73.988748 263.58,73.620981 C264.881332,73.2124706 266.129953,72.6519336 267.3,71.950981 C268.396954,71.2584009 269.296082,70.293819 269.91,69.150981 C270.644447,67.9132172 271.031375,66.5002413 271.03,65.060981 C271.163968,62.9552825 270.340983,60.9014936 268.79,59.470981 C267.043304,58.0900284 265.098025,56.9808489 263.02,56.180981 C260.79,55.250981 258.18,54.510981 255.39,53.580981 C252.704368,52.7985777 250.137541,51.6547753 247.76,50.180981 C245.417724,48.7268142 243.380029,46.8317577 241.76,44.600981 C240.085089,41.7275847 239.305185,38.4199549 239.52,35.100981 C239.5221,32.0134838 240.204978,28.9644307 241.52,26.170981 C242.859646,23.7585147 244.701042,21.661369 246.92,20.020981 C249.274076,18.3078643 251.925638,17.0465071 254.74,16.300981 C257.636378,15.4147694 260.651176,14.976376 263.68,15.000981 C267.161208,14.999931 270.619508,15.5639311 273.92,16.670981 C277.204953,17.702312 280.201987,19.4902568 282.67,21.890981 L274.73,31.390981 Z M295.73,15.130981 L319.33,15.130981 C322.564237,15.1619406 325.788409,15.4967456 328.96,16.130981 C331.891209,16.7457026 334.688678,17.8802696 337.22,19.480981 C339.556554,21.0532712 341.505559,23.1356291 342.92,25.570981 C344.457678,28.5402472 345.14955,31.8750701 344.92,35.210981 C345.09464,38.9367186 344.352982,42.6484406 342.76,46.020981 C341.311207,48.6146382 339.208014,50.7833411 336.66,52.310981 C333.942394,53.8973412 330.93207,54.9177901 327.81,55.310981 C324.297902,55.8672385 320.745745,56.1314761 317.19,56.100981 L308.34,56.100981 L308.34,85.180981 L295.98,85.180981 L295.78,15.180981 L295.73,15.130981 Z M315.79,45.810981 C317.625605,45.84424 319.461659,45.7774744 321.29,45.610981 C323.09639,45.4043921 324.876127,45.0088949 326.6,44.430981 C328.142642,43.7794545 329.494808,42.7472663 330.53,41.430981 C331.699109,39.8425892 332.259719,37.8875486 332.11,35.920981 C332.192674,34.0858563 331.634052,32.2791729 330.53,30.810981 C329.589963,29.5709788 328.379189,28.5620009 326.99,27.860981 C325.450963,27.1076877 323.786715,26.6433251 322.08,26.490981 C320.385887,26.2584646 318.679659,26.1249047 316.97,26.090981 L308.12,26.090981 L308.12,45.810981 L315.79,45.810981 Z M368.58,15.230981 L379.45,15.230981 L409.65,85.230981 L395.29,85.230981 L388.82,69.350981 L358.45,69.350981 L352.15,85.230981 L338.23,85.230981 L368.58,15.230981 Z M384.65,58.760981 L373.92,30.330981 L362.92,58.760981 L384.65,58.760981 Z M424.65,55.430981 L398.45,15.230981 L413.94,15.230981 L431.2,43.070981 L448.65,15.230981 L463.55,15.230981 L437.08,55.430981 L437.08,85.230981 L424.69,85.230981 L424.65,55.430981 Z"/>
  </g>
</svg>
