<svg xmlns="http://www.w3.org/2000/svg" viewBox="0 0 96 96"><title>Kotak Mahindra Bank</title><path d="M12,48c0-17.11,16.15-31,36-31S84,30.89,84,48,67.85,79,48,79,12,65.11,12,48" fill="#003874"/><path d="M43.67,27l8.38-2.75.07,45.27L43.6,72.25,43.67,27" fill="#ed1c24"/><path d="M75.14,51.09c-.76,6.46-4.4,13-12.37,13.05-4.6,0-8.24-3.16-10.72-7V52.67c3.16,1.58,6,3.23,9.62,3.3,4.4.07,8.31-1.65,10-4.74h3.5ZM48.62,55.21c-3.64,4.4-7.15,8.86-13.74,8.86-9.27,0-13.74-9-13.74-16.49,0-7.21,3.44-15.8,12.5-15.8,3.92,0,7.69,2.4,10,4.95v6.11a20,20,0,0,0-8.86-2.54C29,40.24,24,42.71,24,48.34c.07,3.92,3.92,6.53,7.76,6.53,5.91,0,9.48-5.36,12.44-9.48l3.57-4.74c3.3-4.6,7.15-8.86,13.74-8.86,7.76,0,12.09,6.25,13.33,12.71h-3.5a8.36,8.36,0,0,0-6.8-3.37c-6.11,0-9.76,5.63-12.78,9.76.07,0-2.34,3.23-3.16,4.33" fill="#fff"/></svg>